<?xml version="1.0" encoding="utf-8"?>
<!-- Generator: Adobe Illustrator 26.1.0, SVG Export Plug-In . SVG Version: 6.00 Build 0)  -->
<svg version="1.1" id="Capa_1" xmlns="http://www.w3.org/2000/svg" xmlns:xlink="http://www.w3.org/1999/xlink" x="0px" y="0px"
	 viewBox="0 0 1814.21 651.44" style="enable-background:new 0 0 1814.21 651.44;" xml:space="preserve">
<style type="text/css">
	.st0{fill:#436CB4;}
</style>
<g>
	<path class="st0" d="M1085.99,190.94C1085.99,85.49,1000.51,0,895.06,0S704.12,85.49,704.12,190.94
		c0,58.38,26.23,110.6,67.51,145.62c-12.37,15.1-24.75,30.21-37.12,45.31c54.94,0,109.88,0,164.83,0c-0.04-0.03-0.08-0.07-0.12-0.11
		C1002.74,379.55,1085.99,295,1085.99,190.94z M895.06,288.83c-54.06,0-97.89-43.83-97.89-97.89s43.83-97.89,97.89-97.89
		s97.89,43.83,97.89,97.89S949.12,288.83,895.06,288.83z"/>
		<path d="M138.67,581.26c0,19.64-6.95,36.17-20.6,49.34c-13.65,13.41-29.94,20.12-48.86,20.12c-18.68,0-34.97-6.95-48.62-20.6
			l5.75-5.99c12.21,12.21,26.35,18.2,42.87,18.2c16.53,0,30.9-5.99,43.11-18.2c12.21-11.98,18.2-26.35,18.2-42.88v-53.17
			c0-17.01-6.23-31.38-18.68-42.87c-12.45-11.74-26.58-17.48-42.15-17.48c-17.48,0-31.85,6.23-43.35,18.44
			C14.84,498.39,9.1,512.28,9.1,528.09c0,16.76,5.99,31.14,17.72,42.87s26.11,17.72,42.87,17.72c7.91,0,15.57-1.44,22.99-4.55
			l3.35,7.66c-8.86,3.59-17.48,5.27-26.35,5.27c-19.88,0-36.4-6.95-49.58-20.6c-12.93-13.89-19.4-29.94-19.4-48.38
			c0-19.88,6.95-36.17,20.84-49.1c13.89-13.17,29.94-19.64,48.14-19.64c18.92,0,35.21,6.71,48.62,20.12
			c13.65,13.41,20.36,29.7,20.36,48.62V581.26z"/>
			<path d="M69.21,651.44c-18.79,0-35.32-7-49.12-20.81l-0.49-0.49l6.74-7.01l0.51,0.51c12.11,12.11,25.97,17.99,42.37,17.99
			c16.33,0,30.67-6.05,42.61-17.99c11.94-11.71,17.99-25.96,17.99-42.37v-53.17c0-16.8-6.21-31.05-18.45-42.35
			c-12.18-11.48-26.2-17.3-41.67-17.3c-17.04,0-31.46,6.13-42.83,18.22c-11.47,12.19-17.05,25.74-17.05,41.43
			c0,16.49,5.89,30.75,17.51,42.37c11.62,11.62,25.88,17.51,42.37,17.51c7.97,0,15.61-1.51,22.72-4.49l0.65-0.27l3.93,8.98
			l-0.68,0.27c-8.83,3.58-17.54,5.32-26.61,5.32c-19.91,0-36.76-7-50.09-20.82C6.59,563,0,546.56,0,528.09
			c0-19.91,7.09-36.61,21.06-49.62c13.88-13.16,30.24-19.83,48.63-19.83c19.11,0,35.64,6.84,49.13,20.33
			c13.65,13.4,20.57,29.93,20.57,49.13v53.17c0,19.75-7,36.53-20.82,49.85C104.85,644.6,88.24,651.44,69.21,651.44z M21.59,630.11
			c13.43,13.21,29.45,19.9,47.62,19.9c18.64,0,34.91-6.7,48.36-19.92c13.53-13.05,20.38-29.48,20.38-48.83v-53.17
			c0-18.8-6.78-34.98-20.14-48.11c-13.22-13.22-29.41-19.92-48.12-19.92c-18.01,0-34.04,6.54-47.65,19.45
			C8.17,492.43,1.42,508.32,1.42,528.09c0,18.35,6.28,34.01,19.21,47.89c13.04,13.52,29.55,20.37,49.06,20.37
			c8.66,0,16.97-1.62,25.4-4.95l-2.78-6.35c-7.1,2.88-14.71,4.34-22.62,4.34c-16.88,0-31.48-6.03-43.38-17.93
			c-11.9-11.9-17.93-26.49-17.93-43.38c0-15.84,5.87-30.11,17.44-42.4c11.66-12.39,26.42-18.67,43.87-18.67
			c15.85,0,30.19,5.95,42.64,17.68c12.54,11.58,18.91,26.18,18.91,43.39v53.17c0,16.81-6.2,31.4-18.42,43.38
			c-12.21,12.21-26.89,18.4-43.61,18.4c-16.57,0-30.59-5.86-42.86-17.9L21.59,630.11z"/>
			<path d="M248.12,467.5c-16.53,0-30.9,5.99-42.63,17.96c-11.74,11.74-17.73,26.11-17.73,42.63v66.58h-8.38v-66.58
			c0-19.88,6.95-36.41,20.84-49.34c13.89-13.17,29.94-19.64,47.9-19.64V467.5z"/>
		<path d="M188.48,595.39h-9.81v-67.3c0-20.07,7.09-36.85,21.06-49.86c13.88-13.16,30.16-19.83,48.39-19.83h0.71v9.81h-0.71
			c-16.41,0-30.58,5.97-42.12,17.75c-11.63,11.63-17.52,25.8-17.52,42.14V595.39z M180.09,593.96h6.96v-65.87
			c0-16.72,6.03-31.24,17.93-43.14c11.65-11.88,25.92-18,42.42-18.17v-6.96c-17.57,0.17-33.28,6.71-46.7,19.44
			c-13.68,12.74-20.62,29.16-20.62,48.82V593.96z"/>
</g>
<g>
	<g>
		
		
	</g>
	<g>
		
	</g>
	<g>
		<path d="M407.39,461.51v66.83c0,18.92-6.71,35.21-20.36,48.62c-13.65,13.41-29.7,20.12-48.38,20.12
			c-18.92,0-35.21-6.71-48.86-20.12c-13.41-13.41-20.12-29.7-20.12-48.62v-66.83h8.62v66.83c0,16.53,5.99,30.9,17.72,42.63
			s26.11,17.72,42.63,17.72c16.29,0,30.42-5.99,42.39-17.72c11.98-11.74,17.96-26.11,17.96-42.63v-66.83H407.39z"/>
		<path d="M338.65,597.79c-19.03,0-35.63-6.84-49.36-20.33c-13.49-13.49-20.33-30.02-20.33-49.13v-67.54h10.05v67.54
			c0,16.33,5.89,30.51,17.51,42.13c11.62,11.62,25.8,17.51,42.13,17.51c15.94,0,30.03-5.89,41.9-17.52
			c11.78-11.54,17.75-25.71,17.75-42.12v-67.54h9.81v67.54c0,19.19-6.92,35.72-20.57,49.13
			C373.81,590.95,357.36,597.79,338.65,597.79z M270.39,462.22v66.11c0,18.72,6.7,34.91,19.91,48.12
			c13.45,13.21,29.72,19.91,48.36,19.91c18.58,0,34.24-6.52,47.88-19.92c13.37-13.13,20.15-29.32,20.15-48.11v-66.11h-6.96v66.11
			c0,16.81-6.12,31.32-18.18,43.14c-12.14,11.89-26.57,17.93-42.89,17.93c-16.73,0-31.24-6.03-43.14-17.93
			c-11.9-11.9-17.93-26.41-17.93-43.14v-66.11H270.39z"/>
	</g>
	<g>
		<path d="M562.83,577.67c-13.89,13.17-29.94,19.64-47.9,19.64c-9.34,0-18.2-1.92-27.06-5.51l3.35-7.66
			c7.66,3.11,15.57,4.79,23.71,4.79c17.48,0,31.86-5.99,43.11-18.2c11.5-12.21,17.24-26.35,17.24-42.39
			c0-17.01-5.99-31.38-18.2-43.11c-11.98-11.74-26.11-17.48-42.15-17.48c-16.29,0-30.42,5.75-42.63,17.48
			c-11.98,11.73-17.96,25.39-17.96,41.44v121.67h-8.62v-120c0-19.64,6.95-35.93,20.84-49.1c14.13-13.17,30.18-19.88,48.38-19.88
			c19.4,0,35.93,6.95,49.1,20.84c13.17,13.65,19.88,29.7,19.88,48.14C583.9,547.97,576.96,564.5,562.83,577.67z"/>
		<path d="M455.04,649.04h-10.05V528.33c0-19.67,7.09-36.37,21.06-49.62c14.29-13.32,30.73-20.08,48.87-20.08
			c19.67,0,36.37,7.09,49.62,21.06c13.32,13.8,20.07,30.17,20.07,48.63c0,19.9-7.17,36.68-21.3,49.86
			c-13.88,13.16-30.16,19.83-48.39,19.83c-9.16,0-18.1-1.82-27.33-5.56l-0.68-0.27l3.93-8.97l0.64,0.26
			c7.74,3.14,15.62,4.74,23.44,4.74c17.27,0,31.6-6.05,42.59-17.97c11.32-12.03,17.06-26.13,17.06-41.91
			c0-16.8-6.05-31.14-17.99-42.6c-11.71-11.47-25.72-17.29-41.66-17.29c-16.25,0-30.03,5.65-42.14,17.29
			c-11.94,11.7-17.75,25.09-17.75,40.92V649.04z M446.42,647.62h7.2V526.65c0-16.24,5.95-29.96,18.18-41.94
			c12.39-11.9,26.5-17.69,43.13-17.69c16.33,0,30.68,5.95,42.65,17.69c12.22,11.74,18.42,26.42,18.42,43.62
			c0,16.16-5.87,30.59-17.44,42.88c-11.27,12.22-25.95,18.42-43.63,18.42c-7.79,0-15.64-1.54-23.34-4.58l-2.78,6.36
			c8.82,3.49,17.37,5.19,26.12,5.19c17.85,0,33.81-6.54,47.41-19.45l0,0c13.84-12.9,20.85-29.32,20.85-48.82
			c0-18.08-6.62-34.11-19.68-47.65c-12.98-13.68-29.32-20.62-48.59-20.62c-17.77,0-33.88,6.62-47.9,19.69
			c-13.87,13.15-20.61,29.04-20.61,48.58V647.62z"/>
	</g>
	<g>
		<path d="M729.76,576.71c-13.41,13.41-29.46,20.12-48.38,20.12c-18.92,0-34.97-6.71-48.62-20.12
			c-13.41-13.65-20.12-29.7-20.12-48.62c0-18.92,6.71-34.97,20.12-48.38c13.41-13.65,29.7-20.36,48.62-20.36
			c18.92,0,34.97,6.71,48.38,20.36c13.65,13.65,20.36,29.7,20.36,48.38C750.12,547.01,743.41,563.06,729.76,576.71z M723.77,485.7
			c-11.74-11.98-25.87-17.96-42.39-17.96c-16.53,0-30.66,5.99-42.63,17.96c-11.74,11.98-17.72,26.11-17.72,42.4
			c0,16.53,5.99,30.9,17.72,42.63s26.11,17.72,42.63,17.72c16.53,0,30.9-5.99,42.63-17.72c11.74-11.74,17.72-26.11,17.72-42.63
			C741.73,511.8,735.75,497.67,723.77,485.7z"/>
		<path d="M681.38,597.55c-19.13,0-35.2-6.65-49.12-20.33c-13.68-13.93-20.33-29.99-20.33-49.13c0-18.95,6.84-35.4,20.33-48.89
			c13.41-13.65,29.94-20.57,49.12-20.57c19.3,0,35.29,6.73,48.89,20.57c13.83,13.84,20.56,29.83,20.56,48.88
			c0,19.22-6.73,35.29-20.57,49.12C716.78,590.71,700.33,597.55,681.38,597.55z M681.38,460.06c-18.79,0-34.98,6.78-48.11,20.15
			c-13.4,13.4-19.92,29.06-19.92,47.88c0,18.74,6.52,34.48,19.92,48.12c13.63,13.39,29.37,19.91,48.11,19.91
			c18.82,0,34.48-6.51,47.88-19.91l0,0c13.56-13.56,20.15-29.3,20.15-48.12c0-18.66-6.59-34.32-20.15-47.88
			C715.93,466.65,700.27,460.06,681.38,460.06z M681.38,589.16c-16.73,0-31.24-6.03-43.14-17.93c-11.9-11.9-17.93-26.41-17.93-43.14
			c0-16.32,6.03-30.75,17.93-42.89c12.06-12.06,26.58-18.18,43.14-18.18c16.65,0,31.08,6.12,42.9,18.18
			c12.06,12.06,18.17,26.49,18.17,42.89c0,16.72-6.03,31.24-17.93,43.14C712.62,583.13,698.1,589.16,681.38,589.16z M681.38,468.45
			c-16.4,0-30.18,5.81-42.13,17.75c-11.62,11.86-17.52,25.95-17.52,41.89c0,16.33,5.89,30.51,17.52,42.13
			c11.62,11.62,25.8,17.51,42.13,17.51c16.33,0,30.51-5.89,42.13-17.51c11.62-11.62,17.51-25.8,17.51-42.13
			c0-16.01-5.97-30.11-17.76-41.89l-0.01-0.01C711.72,474.42,697.63,468.45,681.38,468.45z"/>
	</g>
	<g>
		<path d="M936.2,467.5c-16.53,0-30.9,5.99-42.63,17.96c-11.74,11.74-17.73,26.11-17.73,42.63v66.58h-8.38v-66.58
			c0-19.88,6.95-36.41,20.84-49.34c13.89-13.17,29.94-19.64,47.9-19.64V467.5z"/>
		<path d="M876.56,595.39h-9.81v-67.3c0-20.07,7.09-36.85,21.06-49.86c13.88-13.16,30.16-19.83,48.39-19.83h0.71v9.81h-0.71
			c-16.41,0-30.58,5.97-42.12,17.75c-11.63,11.63-17.52,25.8-17.52,42.14V595.39z M868.17,593.96h6.96v-65.87
			c0-16.72,6.03-31.24,17.93-43.14c11.65-11.88,25.92-18,42.42-18.17v-6.96c-17.57,0.17-33.27,6.71-46.7,19.44
			c-13.68,12.74-20.61,29.16-20.61,48.82V593.96z"/>
	</g>
	<g>
		<path d="M989.61,518.51v-8.62h89.58c-3.83-12.45-11.26-22.51-22.04-30.18c-10.78-7.9-22.75-11.74-35.45-11.74
			c-15.57,0-29.46,5.99-41.92,18.2c-12.21,11.98-18.44,26.11-18.44,42.16c0,16.53,5.99,30.66,17.73,42.63
			c11.74,11.74,26.1,17.72,42.63,17.72c17.96,0,33.05-6.7,45.03-20.36l6.23,5.75c-15.33,15.33-32.33,22.99-51.26,22.99
			s-34.97-6.71-48.62-20.36c-13.41-13.65-20.12-29.7-20.12-48.38c0-18.92,6.7-35.21,20.12-48.62c13.41-13.41,29.7-20.12,48.62-20.12
			c17,0,31.85,5.51,44.79,16.76c12.94,11.26,20.6,25.15,23.23,42.15H989.61z"/>
		<path d="M1021.7,597.79c-19.22,0-35.29-6.73-49.13-20.57c-13.49-13.73-20.33-30.17-20.33-48.88c0-19.11,6.84-35.64,20.33-49.13
			c13.49-13.49,30.02-20.33,49.13-20.33c17.36,0,32.16,5.54,45.25,16.94c13.12,11.42,20.8,25.35,23.47,42.58l0.13,0.82H988.9v-10.05
			h89.32c-3.83-11.76-11.05-21.47-21.47-28.89c-10.51-7.7-22.29-11.6-35.04-11.6c-15.52,0-29.07,5.89-41.42,18
			c-12.1,11.86-18.23,25.87-18.23,41.65c0,16.1,5.89,30.27,17.52,42.14c11.62,11.61,25.79,17.51,42.12,17.51
			c17.81,0,32.78-6.77,44.49-20.12l0.48-0.55l7.31,6.75l-0.52,0.52C1058.07,589.98,1040.65,597.79,1021.7,597.79z M1021.7,460.3
			c-18.72,0-34.9,6.7-48.12,19.91c-13.21,13.21-19.91,29.4-19.91,48.12c0,18.58,6.52,34.24,19.92,47.88
			c13.55,13.56,29.29,20.15,48.11,20.15c18.6,0,35.04-7.28,50.23-22.26l-5.15-4.75c-11.92,13.31-27.08,20.05-45.08,20.05
			c-16.73,0-31.24-6.03-43.14-17.93c-11.9-12.14-17.93-26.65-17.93-43.14c0-16.17,6.28-30.53,18.66-42.67
			c12.63-12.38,26.5-18.41,42.41-18.41c13.06,0,25.13,4,35.87,11.87c10.95,7.79,18.46,18.07,22.3,30.54l0.28,0.92h-89.83v7.2h98.57
			c-2.73-16.51-10.22-29.9-22.87-40.9C1053.2,465.73,1038.7,460.3,1021.7,460.3z"/>
	</g>
	<g>
		<path d="M1228.4,461.51h10.06L1169,597.55l-68.98-136.05h9.82l59.4,119.04L1228.4,461.51z"/>
		<path d="M1169,599.12l-0.63-1.25l-69.51-137.08h11.42l0.2,0.39l58.76,117.76l58.72-118.15h11.66L1169,599.12z M1101.18,462.22
			L1169,595.98l68.29-133.76h-8.45l-59.6,119.92l-0.64-1.28l-59.2-118.64H1101.18z"/>
	</g>
	<g>
		<path d="M1284.68,518.51v-8.62h89.58c-3.83-12.45-11.26-22.51-22.04-30.18c-10.78-7.9-22.75-11.74-35.45-11.74
			c-15.57,0-29.46,5.99-41.92,18.2c-12.21,11.98-18.44,26.11-18.44,42.16c0,16.53,5.99,30.66,17.73,42.63
			c11.74,11.74,26.1,17.72,42.63,17.72c17.96,0,33.05-6.7,45.03-20.36l6.23,5.75c-15.33,15.33-32.33,22.99-51.25,22.99
			c-18.92,0-34.97-6.71-48.62-20.36c-13.41-13.65-20.12-29.7-20.12-48.38c0-18.92,6.71-35.21,20.12-48.62
			c13.41-13.41,29.7-20.12,48.62-20.12c17,0,31.85,5.51,44.79,16.76c12.94,11.26,20.6,25.15,23.23,42.15H1284.68z"/>
		<path d="M1316.77,597.79c-19.22,0-35.29-6.73-49.13-20.57c-13.49-13.73-20.33-30.18-20.33-48.88c0-19.11,6.84-35.64,20.33-49.13
			c13.49-13.49,30.01-20.33,49.13-20.33c17.36,0,32.16,5.54,45.25,16.94c13.12,11.42,20.8,25.35,23.47,42.58l0.13,0.82h-101.66
			v-10.05h89.32c-3.83-11.76-11.05-21.47-21.47-28.89c-10.51-7.7-22.29-11.6-35.04-11.6c-15.52,0-29.07,5.89-41.42,18
			c-12.1,11.86-18.23,25.87-18.23,41.65c0,16.09,5.89,30.27,17.52,42.14c11.62,11.61,25.79,17.51,42.12,17.51
			c17.81,0,32.78-6.77,44.49-20.12l0.48-0.55l7.31,6.75l-0.52,0.52C1353.14,589.98,1335.72,597.79,1316.77,597.79z M1316.77,460.3
			c-18.72,0-34.91,6.7-48.12,19.91c-13.21,13.21-19.91,29.4-19.91,48.12c0,18.58,6.52,34.24,19.92,47.88
			c13.55,13.56,29.29,20.15,48.11,20.15c18.6,0,35.04-7.28,50.23-22.26l-5.15-4.75c-11.92,13.31-27.08,20.05-45.08,20.05
			c-16.73,0-31.24-6.03-43.14-17.93c-11.9-12.14-17.93-26.66-17.93-43.14c0-16.17,6.28-30.53,18.66-42.67
			c12.63-12.38,26.5-18.41,42.41-18.41c13.06,0,25.13,4,35.87,11.87c10.95,7.79,18.46,18.07,22.3,30.54l0.28,0.92h-89.83v7.2h98.57
			c-2.73-16.51-10.22-29.9-22.87-40.9C1348.27,465.73,1333.77,460.3,1316.77,460.3z"/>
	</g>
	<g>
		<path d="M1487.06,467.5c-16.53,0-30.9,5.99-42.63,17.96c-11.74,11.74-17.72,26.11-17.72,42.63v66.58h-8.38v-66.58
			c0-19.88,6.95-36.41,20.84-49.34c13.89-13.17,29.94-19.64,47.9-19.64V467.5z"/>
		<path d="M1427.41,595.39h-9.81v-67.3c0-20.07,7.09-36.85,21.06-49.86c13.88-13.16,30.16-19.83,48.39-19.83h0.71v9.81h-0.71
			c-16.41,0-30.58,5.97-42.12,17.75c-11.63,11.63-17.52,25.8-17.52,42.14V595.39z M1419.03,593.96h6.96v-65.87
			c0-16.72,6.03-31.24,17.93-43.14c11.65-11.88,25.92-18,42.42-18.17v-6.96c-17.57,0.17-33.27,6.71-46.7,19.44
			c-13.68,12.74-20.61,29.16-20.61,48.82V593.96z"/>
	</g>
	<g>
		<path d="M1620.94,576.71c-13.41,13.41-29.46,20.12-48.38,20.12s-34.97-6.71-48.62-20.12c-13.41-13.65-20.12-29.7-20.12-48.62
			c0-18.92,6.7-34.97,20.12-48.38c13.41-13.65,29.7-20.36,48.62-20.36s34.97,6.71,48.38,20.36c13.65,13.65,20.36,29.7,20.36,48.38
			C1641.3,547.01,1634.59,563.06,1620.94,576.71z M1614.95,485.7c-11.74-11.98-25.87-17.96-42.39-17.96
			c-16.53,0-30.66,5.99-42.63,17.96c-11.74,11.98-17.73,26.11-17.73,42.4c0,16.53,5.99,30.9,17.73,42.63
			c11.74,11.74,26.1,17.72,42.63,17.72c16.53,0,30.9-5.99,42.63-17.72c11.74-11.74,17.72-26.11,17.72-42.63
			C1632.92,511.8,1626.93,497.67,1614.95,485.7z"/>
		<path d="M1572.56,597.55c-19.13,0-35.2-6.65-49.12-20.33c-13.68-13.92-20.33-29.99-20.33-49.13c0-18.95,6.84-35.4,20.33-48.89
			c13.41-13.65,29.94-20.57,49.13-20.57c19.3,0,35.29,6.73,48.89,20.57c13.83,13.84,20.56,29.83,20.56,48.88
			c0,19.22-6.73,35.29-20.57,49.12l0,0C1607.96,590.71,1591.51,597.55,1572.56,597.55z M1572.56,460.06
			c-18.79,0-34.98,6.78-48.11,20.15c-13.4,13.4-19.92,29.06-19.92,47.88c0,18.74,6.52,34.48,19.92,48.12
			c13.63,13.39,29.37,19.91,48.11,19.91c18.82,0,34.48-6.51,47.88-19.91l0,0c13.56-13.56,20.15-29.3,20.15-48.12
			c0-18.66-6.59-34.32-20.15-47.88C1607.11,466.65,1591.46,460.06,1572.56,460.06z M1572.56,589.16c-16.73,0-31.24-6.03-43.14-17.93
			c-11.9-11.9-17.93-26.41-17.93-43.14c0-16.32,6.03-30.76,17.93-42.89c12.06-12.06,26.58-18.18,43.14-18.18
			c16.65,0,31.08,6.12,42.9,18.18c12.06,12.06,18.17,26.49,18.17,42.89c0,16.73-6.03,31.24-17.93,43.14
			C1603.8,583.13,1589.29,589.16,1572.56,589.16z M1572.56,468.45c-16.4,0-30.18,5.81-42.13,17.75
			c-11.62,11.86-17.52,25.95-17.52,41.89c0,16.33,5.89,30.51,17.52,42.13c11.62,11.62,25.8,17.51,42.13,17.51
			s30.51-5.89,42.13-17.51c11.62-11.62,17.51-25.8,17.51-42.13c0-16.02-5.97-30.11-17.75-41.89l-0.01-0.01
			C1602.9,474.42,1588.81,468.45,1572.56,468.45z"/>
	</g>
	<g>
		<path d="M1813.5,594.68h-8.86v-66.82c0-16.53-5.99-30.66-17.96-42.4c-11.98-11.98-26.11-17.96-42.63-17.96
			c-16.29,0-30.42,5.99-42.39,17.96c-11.98,11.74-17.96,25.87-17.96,42.4v66.82h-8.86v-66.82c0-18.92,6.71-34.97,20.36-48.38
			c13.65-13.65,29.94-20.36,48.86-20.36s35.21,6.71,48.86,20.36c13.65,13.41,20.6,29.46,20.6,48.38V594.68z"/>
		<path d="M1814.21,595.39h-10.29v-67.54c0-16.25-5.97-30.34-17.75-41.89c-11.95-11.95-25.73-17.76-42.14-17.76
			c-16.02,0-30.11,5.97-41.89,17.75c-11.78,11.55-17.76,25.64-17.76,41.89v67.54h-10.29v-67.54c0-19.3,6.73-35.29,20.57-48.89
			c13.64-13.64,30.25-20.56,49.36-20.56s35.72,6.92,49.37,20.57c13.8,13.56,20.81,30.01,20.81,48.89V595.39z M1805.35,593.96h7.44
			v-66.11c0-18.48-6.86-34.59-20.38-47.87c-13.38-13.38-29.65-20.15-48.36-20.15s-34.99,6.78-48.36,20.15
			c-13.56,13.32-20.15,28.98-20.15,47.88v66.11h7.44v-66.11c0-16.65,6.12-31.08,18.18-42.9c12.05-12.05,26.49-18.17,42.89-18.17
			c16.56,0,31.08,6.11,43.14,18.17c12.06,11.82,18.17,26.25,18.17,42.9V593.96z"/>
	</g>
</g>
</svg>
