<?xml version="1.0" encoding="utf-8"?>
<!-- Generator: Adobe Illustrator 26.1.0, SVG Export Plug-In . SVG Version: 6.00 Build 0)  -->
<svg version="1.1" id="Capa_1" xmlns="http://www.w3.org/2000/svg" xmlns:xlink="http://www.w3.org/1999/xlink" x="0px" y="0px"
	 viewBox="0 0 2279.3 271.9" style="enable-background:new 0 0 2279.3 381.9;" xml:space="preserve">
<style type="text/css">
	.st0{fill:#436CB4;}
</style>
<g>
	<g>
		<path class="st0" d="M381.9,190.9C381.9,85.5,296.4,0,190.9,0S0,85.5,0,190.9c0,58.4,26.2,110.6,67.5,145.6
			c-12.4,15.1-24.8,30.2-37.1,45.3c54.9,0,109.9,0,164.8,0c0,0-0.1-0.1-0.1-0.1C298.6,379.5,381.9,295,381.9,190.9z M190.9,288.8
			c-54.1,0-97.9-43.8-97.9-97.9S136.9,93,190.9,93s97.9,43.8,97.9,97.9S245,288.8,190.9,288.8z"/>
	</g>
	<g>
		<g>
			<path d="M603.8,247.5c0,19.6-6.9,36.2-20.6,49.3c-13.7,13.4-29.9,20.1-48.9,20.1c-18.7,0-35-7-48.6-20.6l5.8-6
				c12.2,12.2,26.4,18.2,42.9,18.2c16.5,0,30.9-6,43.1-18.2c12.2-12,18.2-26.3,18.2-42.9v-53.2c0-17-6.2-31.4-18.7-42.9
				c-12.5-11.7-26.6-17.5-42.2-17.5c-17.5,0-31.9,6.2-43.4,18.4c-11.5,12.2-17.2,26.1-17.2,41.9c0,16.8,6,31.1,17.7,42.9
				C503.7,249,518,255,534.8,255c7.9,0,15.6-1.4,23-4.5l3.3,7.7c-8.9,3.6-17.5,5.3-26.3,5.3c-19.9,0-36.4-7-49.6-20.6
				c-12.9-13.9-19.4-29.9-19.4-48.4c0-19.9,6.9-36.2,20.8-49.1c13.9-13.2,29.9-19.6,48.1-19.6c18.9,0,35.2,6.7,48.6,20.1
				c13.7,13.4,20.4,29.7,20.4,48.6L603.8,247.5L603.8,247.5z"/>
			<path d="M534.3,317.7c-18.8,0-35.3-7-49.1-20.8l-0.5-0.5l6.7-7l0.5,0.5c12.1,12.1,26,18,42.4,18c16.3,0,30.7-6,42.6-18
				c11.9-11.7,18-26,18-42.4v-53.2c0-16.8-6.2-31-18.5-42.4c-12.2-11.5-26.2-17.3-41.7-17.3c-17,0-31.5,6.1-42.8,18.2
				c-11.5,12.2-17,25.7-17,41.4c0,16.5,5.9,30.8,17.5,42.4s25.9,17.5,42.4,17.5c8,0,15.6-1.5,22.7-4.5l0.7-0.3l3.9,9l-0.7,0.3
				c-8.8,3.6-17.5,5.3-26.6,5.3c-19.9,0-36.8-7-50.1-20.8c-13-14-19.6-30.4-19.6-48.9c0-19.9,7.1-36.6,21.1-49.6
				c13.9-13.2,30.2-19.8,48.6-19.8c19.1,0,35.6,6.8,49.1,20.3c13.7,13.4,20.6,29.9,20.6,49.1v53.2c0,19.7-7,36.5-20.8,49.8
				C570,310.9,553.4,317.7,534.3,317.7z M486.7,296.4c13.4,13.2,29.4,19.9,47.6,19.9c18.6,0,34.9-6.7,48.4-19.9
				c13.5-13,20.4-29.5,20.4-48.8v-53.2c0-18.8-6.8-35-20.1-48.1c-13.2-13.2-29.4-19.9-48.1-19.9c-18,0-34,6.5-47.6,19.5
				c-13.9,12.9-20.6,28.8-20.6,48.6c0,18.3,6.3,34,19.2,47.9c13,13.5,29.5,20.4,49.1,20.4c8.7,0,17-1.6,25.4-5l-2.8-6.3
				c-7.1,2.9-14.7,4.3-22.6,4.3c-16.9,0-31.5-6-43.4-17.9c-11.9-11.9-17.9-26.5-17.9-43.4c0-15.8,5.9-30.1,17.4-42.4
				c11.7-12.4,26.4-18.7,43.9-18.7c15.8,0,30.2,6,42.6,17.7c12.5,11.6,18.9,26.2,18.9,43.4v53.2c0,16.8-6.2,31.4-18.4,43.4
				c-12.2,12.2-26.9,18.4-43.6,18.4c-16.6,0-30.6-5.9-42.9-17.9L486.7,296.4z"/>
		</g>
		<g>
			<path d="M713.2,133.8c-16.5,0-30.9,6-42.6,18c-11.7,11.7-17.7,26.1-17.7,42.6v66.6h-8.4v-66.6c0-19.9,7-36.4,20.8-49.3
				c13.9-13.2,29.9-19.6,47.9-19.6V133.8z"/>
			<path d="M653.6,261.7h-9.8v-67.3c0-20.1,7.1-36.9,21.1-49.9c13.9-13.2,30.2-19.8,48.4-19.8h0.7v9.8h-0.7
				c-16.4,0-30.6,6-42.1,17.8c-11.6,11.6-17.5,25.8-17.5,42.1V261.7z M645.2,260.2h7v-65.9c0-16.7,6-31.2,17.9-43.1
				c11.6-11.9,25.9-18,42.4-18.2v-7c-17.6,0.2-33.3,6.7-46.7,19.4c-13.7,12.7-20.6,29.2-20.6,48.8L645.2,260.2L645.2,260.2z"/>
		</g>
		<g>
			<path d="M872.5,127.8v66.8c0,18.9-6.7,35.2-20.4,48.6c-13.6,13.4-29.7,20.1-48.4,20.1c-18.9,0-35.2-6.7-48.9-20.1
				c-13.4-13.4-20.1-29.7-20.1-48.6v-66.8h8.6v66.8c0,16.5,6,30.9,17.7,42.6c11.7,11.7,26.1,17.7,42.6,17.7c16.3,0,30.4-6,42.4-17.7
				c12-11.7,18-26.1,18-42.6v-66.8H872.5z"/>
			<path d="M803.8,264.1c-19,0-35.6-6.8-49.4-20.3c-13.5-13.5-20.3-30-20.3-49.1v-67.5h10v67.5c0,16.3,5.9,30.5,17.5,42.1
				s25.8,17.5,42.1,17.5c15.9,0,30-5.9,41.9-17.5c11.8-11.5,17.8-25.7,17.8-42.1v-67.5h9.8v67.5c0,19.2-6.9,35.7-20.6,49.1
				C838.9,257.2,822.5,264.1,803.8,264.1z M735.5,128.5v66.1c0,18.7,6.7,34.9,19.9,48.1c13.5,13.2,29.7,19.9,48.4,19.9
				c18.6,0,34.2-6.5,47.9-19.9c13.4-13.1,20.1-29.3,20.1-48.1v-66.1h-7v66.1c0,16.8-6.1,31.3-18.2,43.1
				c-12.1,11.9-26.6,17.9-42.9,17.9c-16.7,0-31.2-6-43.1-17.9c-11.9-11.9-17.9-26.4-17.9-43.1v-66.1L735.5,128.5L735.5,128.5z"/>
		</g>
		<g>
			<path d="M1027.9,243.9c-13.9,13.2-29.9,19.6-47.9,19.6c-9.3,0-18.2-1.9-27.1-5.5l3.4-7.7c7.7,3.1,15.6,4.8,23.7,4.8
				c17.5,0,31.9-6,43.1-18.2c11.5-12.2,17.2-26.3,17.2-42.4c0-17-6-31.4-18.2-43.1c-12-11.7-26.1-17.5-42.2-17.5
				c-16.3,0-30.4,5.8-42.6,17.5c-12,11.7-18,25.4-18,41.4v121.7h-8.6v-120c0-19.6,7-35.9,20.8-49.1c14.1-13.2,30.2-19.9,48.4-19.9
				c19.4,0,35.9,7,49.1,20.8c13.2,13.6,19.9,29.7,19.9,48.1C1049,214.2,1042.1,230.8,1027.9,243.9z"/>
			<path d="M920.2,315.3h-10V194.6c0-19.7,7.1-36.4,21.1-49.6c14.3-13.3,30.7-20.1,48.9-20.1c19.7,0,36.4,7.1,49.6,21.1
				c13.3,13.8,20.1,30.2,20.1,48.6c0,19.9-7.2,36.7-21.3,49.9c-13.9,13.2-30.2,19.8-48.4,19.8c-9.2,0-18.1-1.8-27.3-5.6l-0.7-0.3
				l3.9-9l0.6,0.3c7.7,3.1,15.6,4.7,23.4,4.7c17.3,0,31.6-6,42.6-18c11.3-12,17.1-26.1,17.1-41.9c0-16.8-6-31.1-18-42.6
				c-11.7-11.5-25.7-17.3-41.7-17.3c-16.2,0-30,5.6-42.1,17.3c-11.9,11.7-17.8,25.1-17.8,40.9L920.2,315.3L920.2,315.3z
				 M911.5,313.9h7.2v-121c0-16.2,5.9-30,18.2-41.9c12.4-11.9,26.5-17.7,43.1-17.7c16.3,0,30.7,6,42.7,17.7
				c12.2,11.7,18.4,26.4,18.4,43.6c0,16.2-5.9,30.6-17.4,42.9c-11.3,12.2-26,18.4-43.6,18.4c-7.8,0-15.6-1.5-23.3-4.6l-2.8,6.4
				c8.8,3.5,17.4,5.2,26.1,5.2c17.8,0,33.8-6.5,47.4-19.4l0,0c13.8-12.9,20.8-29.3,20.8-48.8c0-18.1-6.6-34.1-19.7-47.6
				c-13-13.7-29.3-20.6-48.6-20.6c-17.8,0-33.9,6.6-47.9,19.7c-13.9,13.1-20.6,29-20.6,48.6L911.5,313.9L911.5,313.9z"/>
		</g>
		<g>
			<path d="M1194.9,243c-13.4,13.4-29.5,20.1-48.4,20.1c-18.9,0-35-6.7-48.6-20.1c-13.4-13.7-20.1-29.7-20.1-48.6
				c0-18.9,6.7-35,20.1-48.4c13.4-13.6,29.7-20.4,48.6-20.4c18.9,0,35,6.7,48.4,20.4c13.7,13.6,20.4,29.7,20.4,48.4
				C1215.2,213.3,1208.5,229.3,1194.9,243z M1188.9,152c-11.7-12-25.9-18-42.4-18c-16.5,0-30.7,6-42.6,18
				c-11.7,12-17.7,26.1-17.7,42.4c0,16.5,6,30.9,17.7,42.6s26.1,17.7,42.6,17.7c16.5,0,30.9-6,42.6-17.7
				c11.7-11.7,17.7-26.1,17.7-42.6C1206.8,178.1,1200.9,163.9,1188.9,152z"/>
			<path d="M1146.5,263.8c-19.1,0-35.2-6.7-49.1-20.3c-13.7-13.9-20.3-30-20.3-49.1c0-19,6.8-35.4,20.3-48.9
				c13.4-13.6,29.9-20.6,49.1-20.6c19.3,0,35.3,6.7,48.9,20.6c13.8,13.8,20.6,29.8,20.6,48.9c0,19.2-6.7,35.3-20.6,49.1
				C1181.9,257,1165.4,263.8,1146.5,263.8z M1146.5,126.3c-18.8,0-35,6.8-48.1,20.1c-13.4,13.4-19.9,29.1-19.9,47.9
				c0,18.7,6.5,34.5,19.9,48.1c13.6,13.4,29.4,19.9,48.1,19.9c18.8,0,34.5-6.5,47.9-19.9l0,0c13.6-13.6,20.2-29.3,20.2-48.1
				c0-18.7-6.6-34.3-20.2-47.9C1181,132.9,1165.4,126.3,1146.5,126.3z M1146.5,255.4c-16.7,0-31.2-6-43.1-17.9
				c-11.9-11.9-17.9-26.4-17.9-43.1c0-16.3,6-30.8,17.9-42.9c12.1-12.1,26.6-18.2,43.1-18.2c16.6,0,31.1,6.1,42.9,18.2
				c12.1,12.1,18.2,26.5,18.2,42.9c0,16.7-6,31.2-17.9,43.1C1177.7,249.4,1163.2,255.4,1146.5,255.4z M1146.5,134.7
				c-16.4,0-30.2,5.8-42.1,17.8c-11.6,11.9-17.5,26-17.5,41.9c0,16.3,5.9,30.5,17.5,42.1c11.6,11.6,25.8,17.5,42.1,17.5
				c16.3,0,30.5-5.9,42.1-17.5c11.6-11.6,17.5-25.8,17.5-42.1c0-16-6-30.1-17.8-41.9l0,0C1176.8,140.7,1162.7,134.7,1146.5,134.7z"
				/>
		</g>
		<g>
			<path d="M1401.3,133.8c-16.5,0-30.9,6-42.6,18c-11.7,11.7-17.7,26.1-17.7,42.6v66.6h-8.4v-66.6c0-19.9,7-36.4,20.8-49.3
				c13.9-13.2,29.9-19.6,47.9-19.6L1401.3,133.8L1401.3,133.8z"/>
			<path d="M1341.7,261.7h-9.8v-67.3c0-20.1,7.1-36.9,21.1-49.9c13.9-13.2,30.2-19.8,48.4-19.8h0.7v9.8h-0.7
				c-16.4,0-30.6,6-42.1,17.8c-11.6,11.6-17.5,25.8-17.5,42.1V261.7z M1333.3,260.2h7v-65.9c0-16.7,6-31.2,17.9-43.1
				c11.7-11.9,25.9-18,42.4-18.2v-7c-17.6,0.2-33.3,6.7-46.7,19.4c-13.7,12.7-20.6,29.2-20.6,48.8V260.2z"/>
		</g>
		<g>
			<path d="M1454.7,184.8v-8.6h89.6c-3.8-12.5-11.3-22.5-22-30.2c-10.8-7.9-22.8-11.7-35.4-11.7c-15.6,0-29.5,6-41.9,18.2
				c-12.2,12-18.4,26.1-18.4,42.2c0,16.5,6,30.7,17.7,42.6c11.7,11.7,26.1,17.7,42.6,17.7c18,0,33.1-6.7,45-20.4l6.2,5.8
				c-15.3,15.3-32.3,23-51.3,23c-18.9,0-35-6.7-48.6-20.4c-13.4-13.7-20.1-29.7-20.1-48.4c0-18.9,6.7-35.2,20.1-48.6
				c13.4-13.4,29.7-20.1,48.6-20.1c17,0,31.8,5.5,44.8,16.8c12.9,11.3,20.6,25.1,23.2,42.2L1454.7,184.8L1454.7,184.8z"/>
			<path d="M1486.8,264.1c-19.2,0-35.3-6.7-49.1-20.6c-13.5-13.7-20.3-30.2-20.3-48.9c0-19.1,6.8-35.6,20.3-49.1s30-20.3,49.1-20.3
				c17.4,0,32.2,5.5,45.2,16.9c13.1,11.4,20.8,25.4,23.5,42.6l0.1,0.8H1454v-10h89.3c-3.8-11.8-11.1-21.5-21.5-28.9
				c-10.5-7.7-22.3-11.6-35-11.6c-15.5,0-29.1,5.9-41.4,18c-12.1,11.9-18.2,25.9-18.2,41.6c0,16.1,5.9,30.3,17.5,42.1
				c11.6,11.6,25.8,17.5,42.1,17.5c17.8,0,32.8-6.8,44.5-20.1l0.5-0.5l7.3,6.8l-0.5,0.5C1523.2,256.3,1505.8,264.1,1486.8,264.1z
				 M1486.8,126.6c-18.7,0-34.9,6.7-48.1,19.9c-13.2,13.2-19.9,29.4-19.9,48.1c0,18.6,6.5,34.2,19.9,47.9
				c13.6,13.6,29.3,20.2,48.1,20.2c18.6,0,35-7.3,50.2-22.3l-5.2-4.8c-11.9,13.3-27.1,20-45.1,20c-16.7,0-31.2-6-43.1-17.9
				c-11.9-12.1-17.9-26.7-17.9-43.1c0-16.2,6.3-30.5,18.7-42.7c12.6-12.4,26.5-18.4,42.4-18.4c13.1,0,25.1,4,35.9,11.9
				c10.9,7.8,18.5,18.1,22.3,30.5l0.3,0.9h-89.8v7.2h98.6c-2.7-16.5-10.2-29.9-22.9-40.9C1518.3,132,1503.8,126.6,1486.8,126.6z"/>
		</g>
		<g>
			<path d="M1693.5,127.8h10.1l-69.5,136l-69-136h9.8l59.4,119L1693.5,127.8z"/>
			<path d="M1634.1,265.4l-0.6-1.2L1564,127.1h11.4l0.2,0.4l58.8,117.8l58.7-118.1h11.7L1634.1,265.4z M1566.3,128.5l67.8,133.8
				l68.3-133.8h-8.4l-59.6,119.9l-0.6-1.3l-59.2-118.6L1566.3,128.5L1566.3,128.5z"/>
		</g>
		<g>
			<path d="M1749.8,184.8v-8.6h89.6c-3.8-12.5-11.3-22.5-22-30.2c-10.8-7.9-22.8-11.7-35.4-11.7c-15.6,0-29.5,6-41.9,18.2
				c-12.2,12-18.4,26.1-18.4,42.2c0,16.5,6,30.7,17.7,42.6c11.7,11.7,26.1,17.7,42.6,17.7c18,0,33.1-6.7,45-20.4l6.2,5.8
				c-15.3,15.3-32.3,23-51.2,23c-18.9,0-35-6.7-48.6-20.4c-13.4-13.7-20.1-29.7-20.1-48.4c0-18.9,6.7-35.2,20.1-48.6
				c13.4-13.4,29.7-20.1,48.6-20.1c17,0,31.9,5.5,44.8,16.8c12.9,11.3,20.6,25.1,23.2,42.2L1749.8,184.8L1749.8,184.8z"/>
			<path d="M1781.9,264.1c-19.2,0-35.3-6.7-49.1-20.6c-13.5-13.7-20.3-30.2-20.3-48.9c0-19.1,6.8-35.6,20.3-49.1s30-20.3,49.1-20.3
				c17.4,0,32.2,5.5,45.2,16.9c13.1,11.4,20.8,25.4,23.5,42.6l0.1,0.8h-101.7v-10h89.3c-3.8-11.8-11.1-21.5-21.5-28.9
				c-10.5-7.7-22.3-11.6-35-11.6c-15.5,0-29.1,5.9-41.4,18c-12.1,11.9-18.2,25.9-18.2,41.6c0,16.1,5.9,30.3,17.5,42.1
				c11.6,11.6,25.8,17.5,42.1,17.5c17.8,0,32.8-6.8,44.5-20.1l0.5-0.5l7.3,6.8l-0.5,0.5C1818.3,256.3,1800.8,264.1,1781.9,264.1z
				 M1781.9,126.6c-18.7,0-34.9,6.7-48.1,19.9s-19.9,29.4-19.9,48.1c0,18.6,6.5,34.2,19.9,47.9c13.6,13.6,29.3,20.2,48.1,20.2
				c18.6,0,35-7.3,50.2-22.3l-5.1-4.8c-11.9,13.3-27.1,20-45.1,20c-16.7,0-31.2-6-43.1-17.9c-11.9-12.1-17.9-26.7-17.9-43.1
				c0-16.2,6.3-30.5,18.7-42.7c12.6-12.4,26.5-18.4,42.4-18.4c13.1,0,25.1,4,35.9,11.9c10.9,7.8,18.5,18.1,22.3,30.5l0.3,0.9h-89.8
				v7.2h98.6c-2.7-16.5-10.2-29.9-22.9-40.9C1813.4,132,1798.9,126.6,1781.9,126.6z"/>
		</g>
		<g>
			<path d="M1952.2,133.8c-16.5,0-30.9,6-42.6,18c-11.7,11.7-17.7,26.1-17.7,42.6v66.6h-8.4v-66.6c0-19.9,6.9-36.4,20.8-49.3
				c13.9-13.2,29.9-19.6,47.9-19.6L1952.2,133.8L1952.2,133.8z"/>
			<path d="M1892.5,261.7h-9.8v-67.3c0-20.1,7.1-36.9,21.1-49.9c13.9-13.2,30.2-19.8,48.4-19.8h0.7v9.8h-0.7
				c-16.4,0-30.6,6-42.1,17.8c-11.6,11.6-17.5,25.8-17.5,42.1V261.7z M1884.1,260.2h7v-65.9c0-16.7,6-31.2,17.9-43.1
				c11.6-11.9,25.9-18,42.4-18.2v-7c-17.6,0.2-33.3,6.7-46.7,19.4c-13.7,12.7-20.6,29.2-20.6,48.8L1884.1,260.2L1884.1,260.2z"/>
		</g>
		<g>
			<path d="M2086.1,243c-13.4,13.4-29.5,20.1-48.4,20.1c-18.9,0-35-6.7-48.6-20.1c-13.4-13.7-20.1-29.7-20.1-48.6
				c0-18.9,6.7-35,20.1-48.4c13.4-13.6,29.7-20.4,48.6-20.4c18.9,0,35,6.7,48.4,20.4c13.7,13.6,20.4,29.7,20.4,48.4
				C2106.4,213.3,2099.7,229.3,2086.1,243z M2080.1,152c-11.7-12-25.9-18-42.4-18c-16.5,0-30.7,6-42.6,18
				c-11.7,12-17.7,26.1-17.7,42.4c0,16.5,6,30.9,17.7,42.6c11.7,11.7,26.1,17.7,42.6,17.7s30.9-6,42.6-17.7
				c11.7-11.7,17.7-26.1,17.7-42.6C2098,178.1,2092,163.9,2080.1,152z"/>
			<path d="M2037.7,263.8c-19.1,0-35.2-6.7-49.1-20.3c-13.7-13.9-20.3-30-20.3-49.1c0-19,6.8-35.4,20.3-48.9
				c13.4-13.6,29.9-20.6,49.1-20.6c19.3,0,35.3,6.7,48.9,20.6c13.8,13.8,20.6,29.8,20.6,48.9c0,19.2-6.7,35.3-20.6,49.1l0,0
				C2073.1,257,2056.6,263.8,2037.7,263.8z M2037.7,126.3c-18.8,0-35,6.8-48.1,20.1c-13.4,13.4-19.9,29.1-19.9,47.9
				c0,18.7,6.5,34.5,19.9,48.1c13.6,13.4,29.4,19.9,48.1,19.9c18.8,0,34.5-6.5,47.9-19.9l0,0c13.6-13.6,20.1-29.3,20.1-48.1
				c0-18.7-6.6-34.3-20.1-47.9C2072.2,132.9,2056.6,126.3,2037.7,126.3z M2037.7,255.4c-16.7,0-31.2-6-43.1-17.9
				c-11.9-11.9-17.9-26.4-17.9-43.1c0-16.3,6-30.8,17.9-42.9c12.1-12.1,26.6-18.2,43.1-18.2c16.7,0,31.1,6.1,42.9,18.2
				c12.1,12.1,18.2,26.5,18.2,42.9c0,16.7-6,31.2-17.9,43.1C2068.9,249.4,2054.4,255.4,2037.7,255.4z M2037.7,134.7
				c-16.4,0-30.2,5.8-42.1,17.8c-11.6,11.9-17.5,26-17.5,41.9c0,16.3,5.9,30.5,17.5,42.1c11.6,11.6,25.8,17.5,42.1,17.5
				c16.3,0,30.5-5.9,42.1-17.5c11.6-11.6,17.5-25.8,17.5-42.1c0-16-6-30.1-17.8-41.9l0,0C2068,140.7,2053.9,134.7,2037.7,134.7z"/>
		</g>
		<g>
			<path d="M2278.6,261h-8.9v-66.8c0-16.5-6-30.7-18-42.4c-12-12-26.1-18-42.6-18c-16.3,0-30.4,6-42.4,18c-12,11.7-18,25.9-18,42.4
				V261h-8.9v-66.8c0-18.9,6.7-35,20.4-48.4c13.6-13.6,29.9-20.4,48.9-20.4c18.9,0,35.2,6.7,48.9,20.4
				c13.6,13.4,20.6,29.5,20.6,48.4L2278.6,261L2278.6,261z"/>
			<path d="M2279.3,261.7H2269v-67.5c0-16.2-6-30.3-17.8-41.9c-11.9-12-25.7-17.8-42.1-17.8c-16,0-30.1,6-41.9,17.8
				c-11.8,11.5-17.8,25.6-17.8,41.9v67.5h-10.3v-67.5c0-19.3,6.7-35.3,20.6-48.9c13.6-13.6,30.2-20.6,49.4-20.6
				c19.1,0,35.7,6.9,49.4,20.6c13.8,13.6,20.8,30,20.8,48.9L2279.3,261.7L2279.3,261.7z M2270.5,260.2h7.4v-66.1
				c0-18.5-6.9-34.6-20.4-47.9c-13.4-13.4-29.6-20.1-48.4-20.1s-35,6.8-48.4,20.1c-13.6,13.3-20.1,29-20.1,47.9v66.1h7.4v-66.1
				c0-16.6,6.1-31.1,18.2-42.9c12.1-12,26.5-18.2,42.9-18.2c16.6,0,31.1,6.1,43.1,18.2c12.1,11.8,18.2,26.2,18.2,42.9L2270.5,260.2
				L2270.5,260.2z"/>
		</g>
	</g>
</g>
</svg>
