<?xml version="1.0" standalone="no"?>
<!DOCTYPE svg PUBLIC "-//W3C//DTD SVG 20010904//EN"
 "http://www.w3.org/TR/2001/REC-SVG-20010904/DTD/svg10.dtd">
<svg version="1.0" xmlns="http://www.w3.org/2000/svg"
 width="2161.000000pt" height="2161.000000pt" viewBox="0 0 2161.000000 2161.000000"
 preserveAspectRatio="xMidYMid meet">

<g transform="translate(0.000000,2161.000000) scale(0.100000,-0.100000)"
fill="#000000" stroke="none">
<path d="M10350 21594 c-30 -2 -136 -8 -235 -14 -1481 -89 -2984 -510 -4308
-1207 -951 -500 -1790 -1114 -2556 -1868 -580 -571 -996 -1074 -1440 -1740
-911 -1367 -1486 -2896 -1705 -4535 -65 -480 -90 -882 -90 -1425 0 -532 27
-956 90 -1425 237 -1764 890 -3411 1926 -4858 517 -721 1185 -1439 1871 -2010
1398 -1165 3031 -1946 4801 -2297 772 -153 1443 -213 2261 -202 595 8 1049 47
1605 138 1928 316 3752 1166 5245 2444 418 358 879 819 1215 1216 784 926
1385 1924 1824 3031 677 1705 903 3582 655 5433 -331 2473 -1550 4798 -3409
6505 -1685 1546 -3831 2514 -6115 2759 -399 43 -579 52 -1085 56 -272 1 -520
1 -550 -1z m1245 -528 c1400 -118 2630 -459 3835 -1062 1594 -799 2938 -1987
3927 -3472 919 -1378 1487 -2913 1672 -4522 282 -2438 -298 -4858 -1650 -6890
-858 -1289 -1995 -2371 -3324 -3162 -1342 -799 -2841 -1278 -4400 -1407 -530
-44 -1201 -43 -1745 4 -2202 191 -4283 1094 -5955 2584 -179 159 -548 524
-719 711 -1454 1586 -2366 3547 -2635 5670 -23 175 -45 405 -63 655 -16 224
-16 1036 0 1260 40 545 90 925 182 1385 355 1773 1156 3391 2365 4775 172 196
679 708 870 877 1070 948 2279 1651 3600 2093 854 286 1750 459 2675 514 235
15 1143 6 1365 -13z"/>
<path d="M14529 15134 c-125 -124 -129 -135 -75 -211 105 -147 198 -431 184
-560 l-3 -31 -80 65 c-264 214 -606 395 -923 487 -277 81 -424 101 -747 100
-221 0 -279 -3 -389 -22 -495 -85 -908 -275 -1284 -589 l-73 -61 -132 132
c-73 72 -170 162 -217 200 -217 173 -511 341 -755 431 -125 46 -330 99 -489
126 -173 30 -561 38 -736 15 -416 -55 -770 -185 -1110 -407 -174 -113 -293
-210 -451 -368 -238 -238 -401 -465 -549 -766 -209 -423 -305 -809 -317 -1277
l-6 -217 36 -36 35 -35 1061 0 c1048 0 1061 0 1081 20 18 18 20 33 20 170 0
147 -1 152 -25 175 l-24 25 -906 0 -905 0 0 33 c0 61 39 296 70 424 86 347
268 719 487 994 326 408 798 714 1284 833 585 142 1205 45 1723 -271 174 -106
378 -273 502 -411 l56 -62 -70 -88 c-345 -435 -555 -947 -628 -1527 -23 -186
-24 -547 0 -735 55 -451 202 -908 401 -1245 31 -53 54 -102 52 -110 -8 -19
-229 -183 -329 -243 -201 -122 -476 -233 -694 -281 -316 -70 -678 -68 -989 6
-459 108 -903 374 -1209 722 -88 100 -121 121 -191 121 -97 0 -147 -52 -198
-206 -19 -60 -43 -149 -51 -199 -21 -117 -21 -345 -1 -461 33 -190 117 -386
233 -547 108 -151 119 -152 258 -14 83 82 104 108 104 131 0 17 -23 65 -59
122 -62 99 -113 224 -137 334 -16 79 -30 240 -19 240 4 0 41 -29 84 -63 396
-329 849 -532 1346 -604 147 -21 525 -24 660 -5 502 71 965 271 1344 579 l85
69 120 -122 c413 -414 918 -663 1546 -761 164 -25 567 -25 735 1 154 23 392
83 520 130 150 56 405 184 540 273 791 521 1275 1400 1312 2383 6 178 2 201
-51 258 -49 55 6 52 -1114 52 -794 0 -1041 -3 -1050 -12 -17 -17 -17 -339 0
-356 9 -9 229 -12 930 -12 l918 0 0 -24 c0 -14 -7 -78 -15 -143 -73 -559 -337
-1102 -724 -1492 -410 -412 -947 -659 -1498 -690 -675 -37 -1295 203 -1777
688 -101 102 -108 111 -95 129 8 11 49 65 91 120 326 423 527 927 593 1487 22
186 22 531 0 720 -30 264 -92 522 -182 765 -46 126 -168 373 -238 484 -30 49
-54 93 -53 97 6 16 186 155 288 221 376 246 793 371 1235 371 208 0 352 -17
549 -67 439 -111 863 -369 1164 -706 101 -114 134 -135 193 -125 62 11 93 48
127 156 55 171 67 254 67 469 0 218 -10 288 -71 470 -62 187 -208 431 -262
438 -18 3 -47 -20 -133 -104z m-3363 -1515 c154 -272 259 -585 312 -932 25
-163 24 -618 -1 -772 -64 -387 -171 -685 -359 -995 -65 -108 -188 -280 -200
-280 -11 0 -117 194 -168 308 -117 262 -190 538 -220 835 -18 176 -8 547 19
707 73 430 233 812 478 1143 36 48 69 87 73 87 5 0 34 -45 66 -101z"/>
<path d="M5855 8120 c-107 -23 -237 -92 -302 -161 -48 -52 -101 -146 -125
-224 -29 -91 -30 -261 -4 -350 65 -218 230 -355 465 -384 82 -11 179 -4 286
20 50 11 140 8 183 -6 l22 -7 0 193 c0 134 4 202 13 219 6 14 31 34 55 45 83
38 59 45 -163 45 -170 0 -205 -2 -205 -14 0 -8 14 -17 33 -21 106 -21 117 -40
117 -217 0 -149 -7 -169 -66 -194 -75 -31 -230 -8 -324 49 -57 35 -149 127
-185 187 -103 169 -124 409 -50 576 51 116 163 192 295 202 162 11 276 -71
310 -225 15 -66 43 -93 96 -93 35 0 47 5 68 31 75 89 -24 252 -189 310 -67 24
-258 35 -330 19z"/>
<path d="M10560 8087 c0 -8 12 -18 28 -22 15 -3 37 -16 50 -27 l22 -21 0 -459
c0 -447 0 -458 -20 -478 -11 -11 -34 -23 -50 -27 -21 -4 -30 -11 -30 -24 0
-18 11 -19 190 -19 179 0 190 1 190 19 0 14 -10 20 -40 25 -77 12 -80 22 -80
226 0 203 3 212 75 226 89 16 189 -9 248 -65 39 -35 51 -61 103 -214 90 -265
195 -437 297 -486 64 -31 197 -27 197 5 0 9 -12 14 -37 14 -126 1 -222 124
-268 344 -34 161 -45 205 -71 263 -27 61 -89 126 -138 144 -20 7 -36 16 -36
19 0 4 24 14 54 23 151 48 230 176 197 321 -15 67 -43 110 -99 153 -81 62
-112 67 -464 71 -273 3 -318 1 -318 -11z m614 -57 c37 -19 56 -38 80 -80 28
-50 31 -63 31 -140 0 -71 -4 -93 -25 -135 -45 -89 -106 -115 -278 -115 -107 0
-114 1 -137 25 -25 24 -25 25 -25 228 0 259 -9 248 185 244 106 -2 126 -5 169
-27z"/>
<path d="M6680 7796 c-71 -16 -96 -26 -98 -39 -3 -14 4 -17 36 -17 27 0 45 -6
58 -21 18 -20 19 -40 19 -320 0 -291 -1 -299 -21 -320 -12 -11 -37 -24 -55
-28 -20 -4 -35 -14 -37 -24 -3 -16 12 -17 182 -17 175 0 186 1 186 19 0 14
-10 20 -38 25 -71 11 -77 27 -80 209 -4 199 9 304 45 376 33 64 65 91 121 98
34 5 44 1 66 -20 13 -13 30 -44 36 -68 16 -59 26 -69 69 -69 55 0 86 37 86
100 0 91 -66 144 -171 137 -72 -5 -118 -25 -179 -79 -56 -49 -75 -45 -75 15 0
45 -13 68 -39 66 -9 0 -59 -11 -111 -23z"/>
<path d="M7430 7796 c-71 -16 -96 -26 -98 -39 -3 -14 4 -17 36 -17 27 0 45 -6
58 -21 17 -19 19 -43 24 -283 5 -284 7 -293 69 -359 47 -52 97 -71 186 -71 95
-1 153 22 222 85 24 22 49 39 56 36 6 -2 15 -18 18 -37 16 -77 98 -109 183
-72 50 23 60 42 21 42 -14 0 -34 9 -45 20 -19 19 -20 33 -20 363 0 276 -3 347
-14 362 -13 19 -16 18 -122 -6 -84 -18 -110 -28 -112 -42 -3 -14 4 -17 32 -17
23 0 43 -7 57 -21 20 -20 20 -29 17 -253 l-3 -233 -30 -49 c-42 -69 -117 -108
-194 -100 -76 7 -126 43 -159 114 -27 57 -27 58 -30 332 -3 195 -7 277 -15
282 -17 11 -29 9 -137 -16z"/>
<path d="M8405 7796 c-66 -16 -91 -26 -93 -39 -3 -14 4 -17 36 -17 27 0 45 -6
58 -21 18 -20 19 -45 22 -469 3 -519 4 -511 -72 -532 -25 -7 -46 -18 -46 -25
0 -10 40 -13 185 -13 141 0 185 3 185 13 0 6 -21 19 -47 27 -32 10 -52 23 -60
40 -17 33 -17 240 -1 275 14 30 13 30 128 -11 63 -22 86 -25 143 -21 208 18
347 188 347 425 -1 226 -147 392 -346 392 -70 0 -168 -32 -216 -70 -46 -38
-68 -34 -68 13 0 63 -16 66 -155 33z m434 -82 c180 -53 274 -338 179 -540 -98
-209 -400 -152 -449 84 -6 33 -10 112 -7 191 3 122 6 141 28 179 26 46 72 80
124 92 49 12 68 11 125 -6z"/>
<path d="M9600 7804 c-76 -20 -129 -54 -188 -119 -74 -80 -96 -144 -96 -275 0
-143 22 -200 113 -291 49 -49 81 -71 123 -87 121 -45 250 -38 361 20 265 141
275 560 15 711 -91 54 -220 70 -328 41z m181 -60 c163 -81 242 -397 147 -583
-44 -85 -93 -114 -184 -109 -117 7 -207 92 -255 240 -28 86 -33 255 -10 323
51 147 167 197 302 129z"/>
<path d="M11880 7807 c-78 -23 -123 -49 -181 -107 -82 -81 -104 -142 -104
-290 0 -109 2 -119 32 -182 90 -191 309 -275 514 -198 87 32 186 127 160 153
-7 7 -21 0 -46 -22 -55 -48 -101 -64 -185 -65 -132 -1 -240 54 -292 150 -36
67 -44 118 -25 148 15 22 23 23 160 30 292 14 367 50 367 173 -1 133 -98 212
-270 219 -51 2 -103 -1 -130 -9z m179 -55 c48 -25 81 -89 81 -159 0 -103 -63
-133 -276 -133 l-114 0 -11 27 c-19 50 16 170 64 221 64 69 172 87 256 44z"/>
<path d="M13555 7807 c-80 -21 -126 -47 -186 -107 -82 -81 -104 -142 -104
-290 0 -108 2 -119 32 -182 90 -190 310 -275 514 -198 87 32 186 127 160 153
-7 7 -21 0 -46 -22 -55 -48 -101 -64 -185 -65 -132 -1 -240 54 -292 150 -36
67 -44 118 -25 148 15 22 23 23 160 30 152 7 256 24 306 50 82 43 82 196 -1
273 -64 60 -222 88 -333 60z m184 -59 c42 -26 70 -88 71 -153 0 -104 -42 -127
-242 -133 l-148 -4 -10 28 c-20 51 14 170 63 222 66 71 187 89 266 40z"/>
<path d="M14173 7797 c-75 -17 -93 -25 -93 -39 0 -14 8 -18 33 -18 18 0 42 -6
53 -14 18 -14 19 -31 22 -308 2 -161 0 -303 -3 -315 -6 -25 -52 -53 -85 -53
-13 0 -20 -7 -20 -20 0 -19 7 -20 185 -20 159 0 185 2 185 15 0 16 -5 19 -53
29 -15 4 -37 16 -48 27 -20 20 -20 30 -17 253 l3 232 32 65 c35 71 84 109 142
109 41 0 66 -27 85 -93 9 -30 23 -58 32 -61 64 -25 124 16 124 85 0 100 -69
156 -180 146 -69 -6 -110 -26 -173 -84 -26 -24 -52 -41 -57 -38 -6 3 -10 24
-10 46 0 52 -15 79 -43 78 -12 -1 -64 -11 -114 -22z"/>
<path d="M15125 7806 c-183 -45 -295 -195 -295 -395 0 -183 91 -322 247 -381
207 -77 425 8 517 200 29 61 31 71 31 185 0 109 -2 125 -27 177 -82 175 -275
263 -473 214z m152 -52 c24 -9 60 -35 88 -65 78 -84 118 -201 117 -345 0 -188
-77 -294 -213 -294 -100 0 -183 64 -240 183 -39 84 -52 154 -47 266 7 155 57
241 155 267 51 13 74 11 140 -12z"/>
<path d="M15815 7796 c-67 -16 -91 -26 -93 -39 -3 -14 4 -17 32 -17 23 0 43
-7 56 -20 19 -19 20 -33 20 -318 0 -336 0 -337 -71 -348 -29 -5 -39 -11 -39
-25 0 -18 11 -19 180 -19 173 0 180 1 180 20 0 13 -7 20 -20 20 -34 0 -79 29
-86 54 -3 12 -4 124 -2 247 3 208 5 227 25 265 64 120 207 156 309 79 17 -13
42 -46 55 -72 22 -46 24 -59 27 -293 2 -146 7 -256 14 -273 21 -54 101 -73
167 -39 42 21 52 42 19 42 -63 1 -68 24 -68 300 0 146 -4 259 -11 286 -18 69
-87 140 -157 160 -111 32 -234 1 -311 -80 -52 -54 -71 -45 -71 33 0 67 -15 71
-155 37z"/>
<path d="M12360 7785 c0 -8 16 -22 36 -31 20 -9 46 -33 59 -53 13 -20 83 -184
156 -364 l132 -328 40 3 41 3 132 328 c73 180 142 340 153 356 12 17 44 39 76
52 95 39 75 49 -100 49 -125 0 -155 -3 -155 -14 0 -7 14 -19 30 -26 61 -25 71
-63 45 -164 -21 -79 -142 -387 -159 -405 -18 -18 -21 -12 -129 254 -105 259
-106 266 -72 293 15 12 35 24 46 27 10 4 19 13 19 21 0 12 -30 14 -175 14
-146 0 -175 -2 -175 -15z"/>
</g>
</svg>
