<svg xmlns="http://www.w3.org/2000/svg" xml:space="preserve" width="1000" height="144" viewBox="0 412.5 1000 144"><path fill="#072146" d="m285.995 504.06 14.856-49.596 15.061 49.596h-29.917zm38.406-58.242c-3.018-8.938-4.699-11.024-13.213-11.024h-20.774l-33.243 108.669h16.925l7.148-23.402h39.492l7.186 23.402h29.451l-32.972-97.645zM132.274 528.979h-7.728v-80.046h13.965c6.734 0 12.516 5.548 12.516 12.25 0 2.355-.435 4.551-2.736 7.878l-9.043 13.569c9.47 2.263 15.793 9.483 15.793 22.973.001 16.398-9.794 23.376-22.767 23.376m27.42-51.606 5.341-7.863c11.209-16.658 3.5-34.731-18.697-34.731H98.964v108.725h45.683c40.187-.001 52.21-46.801 15.047-66.131M40.273 528.979h-7.669v-80.046h13.908c6.743 0 12.583 5.548 12.583 12.25 0 2.355-.434 4.551-2.774 7.878l-9.112 13.569c9.518 2.263 15.833 9.483 15.833 22.973 0 16.398-9.788 23.376-22.769 23.376m27.431-51.606 5.29-7.863c11.26-16.658 3.551-34.731-18.705-34.731H6.982v108.725h45.682c40.148-.001 52.288-46.801 15.04-66.131M252.682 434.778l-24.537 82.551-20.632-68.396c-3.867-12.254-5.821-14.155-13.249-14.155h-19.198l35.564 108.685h26.125l33.126-108.685h-17.199zM671.455 461.332c-1.307-.14-2.389-.12-3.364 0-3.589.475-5.205 2.632-6.597 5.785-.067.168-22.526 57.041-23.487 59.479l-.008-.024v.024c-.946-2.438-23.417-59.31-23.484-59.479-1.392-3.153-3.006-5.31-6.584-5.785a14.51 14.51 0 0 0-3.366 0c-.688.069-1.433.175-2.224.339-.496.083-1.008.194-1.55.32l6.174 15.702 26.052 65.843 4.982.006v-.006h.008v.006l4.995-.006 26.047-65.843 6.16-15.702a24.054 24.054 0 0 0-1.537-.32 21.523 21.523 0 0 0-2.217-.339M422.139 489.381h-17.286v-44.183h17.286c19.15 0 27.333 6.515 27.333 21.787.001 15.699-8.183 22.396-27.333 22.396m.146-54.57h-29.183v108.733h11.751v-43.935h17.286c26.404 0 39.219-10.755 39.219-32.924 0-21.147-13.143-31.874-39.073-31.874M558.266 534.495c-16.733 0-26.726-11.959-26.726-31.988 0-20.094 9.992-32.102 26.726-32.102 16.819 0 26.875 12.008 26.875 32.102 0 20.029-10.056 31.988-26.875 31.988m0-73.729c-23.177 0-38.166 16.399-38.166 41.741 0 25.303 14.989 41.628 38.166 41.628 23.279 0 38.32-16.325 38.32-41.628 0-25.342-15.041-41.741-38.32-41.741M883.286 461.675h-4.296v81.866h11.3v-71.889c0-7.089-.64-9.977-7.004-9.977M884.792 439.488c-3.799 0-7.011 3.206-7.011 6.998 0 3.928 3.077 6.993 7.011 6.993 3.907 0 6.993-3.065 6.993-6.993 0-3.792-3.211-6.998-6.993-6.998M990.306 434.851h-4.585v108.693H997v-99.613c0-6.454-.599-9.08-6.694-9.08M957.103 523.136c-2.854 3.328-5.901 6.157-9.449 8.097-3.755 2.094-8.262 3.318-14.298 3.318-2.462 0-4.729-.271-6.845-.853a16.56 16.56 0 0 1-4.044-1.866c-1.751-1.136-3.146-2.684-4.197-4.729-1.025-2.123-1.615-4.71-1.615-7.984 0-2.781.569-4.962 1.615-6.784.805-1.379 1.807-2.553 3.076-3.678 1.886-1.542 4.392-2.634 7.438-3.447 2.922-.764 6.323-1.125 10.154-1.125 6.733 0 12.673.851 18.165 2.061v16.99zm5.064-55.511c-2.481-2.458-5.761-4.261-9.563-5.351-3.694-1.058-7.959-1.508-12.524-1.508-15.62.087-24.373 4.603-30.091 7.864 4.209 8.922 8.676 6.751 14.452 4.256 4.426-1.911 9.526-2.693 14.914-2.693 2.474 0 5.203.588 7.842 1.117 1.557.42 2.96 1.001 4.11 1.677 1.887 1.171 3.224 2.646 4.246 4.514 1.007 1.895 1.549 4.419 1.549 7.621v11.655c-5.901-1.302-11.868-1.906-18.628-1.906-4.749 0-9.084.46-13.114 1.412-2.942.739-5.62 1.731-8.191 3.038-3.629 2.01-6.62 4.709-8.728 8.101-2.119 3.468-3.183 7.553-3.183 12.297 0 3.878.687 7.491 1.963 10.533 2.042 4.574 5.507 8.191 9.809 10.503 4.384 2.366 9.508 3.541 15.301 3.541h.031c6.673 0 11.961-1.229 16.482-3.337a36.367 36.367 0 0 0 8.258-5.557c.059 1.067.125 1.935.27 2.762.118.879.339 1.673.725 2.396.285.534.64 1.089 1.086 1.491.734.562 1.564.977 2.391 1.176.84.223 1.845.294 2.852.294h3.963v-58.879c0-4.231-.696-7.872-2.05-11.021-.998-2.336-2.4-4.354-4.172-5.996M849.983 531.334c-3.345 1.634-7.784 2.936-13.57 2.936-4.448 0-8.212-.721-11.597-2.09a23.325 23.325 0 0 1-6.624-4.207c-2.881-2.654-5.135-6.078-6.723-10.393-1.55-4.275-2.389-9.417-2.389-15.267 0-5.165.706-9.682 2.051-13.638 1.926-5.861 5.213-10.355 9.489-13.405 4.244-3.086 9.544-4.697 15.792-4.71 5.262 0 9.307.874 12.361 2.175 5.795 2.482 9.826 5.413 14.055-3.5-11.51-9.354-23.068-8.315-26.311-8.469-5.636 0-10.948.948-15.649 2.772-7.108 2.868-12.987 7.78-17.022 14.33-4.022 6.609-6.218 14.904-6.218 24.446 0 6.253.85 12.061 2.553 17.172 2.623 7.732 7.069 13.876 13.186 18.17 6.129 4.197 13.754 6.491 22.623 6.491h.036c6.994 0 12.748-1.381 17.305-3.281.59-.252 1.18-.484 1.721-.758 3.665-1.736 7.136-4.411 9.168-6.355-4.834-8.594-8.657-5.3-14.237-2.419M694.425 439.488c-3.771 0-6.981 3.206-6.981 6.998 0 3.928 3.074 6.993 6.981 6.993 3.941 0 7.004-3.065 7.004-6.993 0-3.792-3.202-6.998-7.004-6.998M692.93 461.675h-4.283v81.866h11.294v-71.889c-.001-7.089-.63-9.977-7.011-9.977M762.189 460.766c-11.025 0-21.906 3.839-32.42 11.418v-.827c0-6.587-.592-9.683-5.94-9.683h-5.348v81.866h11.288v-60.447c10.988-8.23 20.679-12.235 29.566-12.235 9.722 0 13.697 3.927 13.697 13.547v59.135h11.296v-60.03c.001-14.88-7.657-22.744-22.139-22.744M493.924 465.714c-2.96 1.804-5.62 4.02-7.969 6.348 0-1.958-.058-3.491-.231-4.732-.07-.984-.222-1.762-.483-2.56-.204-.518-.436-1.078-.861-1.568a4.29 4.29 0 0 0-.977-.822 4.06 4.06 0 0 0-1.742-.628c-.514-.069-1.055-.069-1.623-.121h-5.391v81.909h11.309v-58.793c3.956-4.68 7.642-7.578 10.155-9.173.088-.044.164-.086.252-.145 4.555-2.896 8.23-3.696 11.123-3.961 5.271-.507 8.772-1.199 9.284-9.363a26.953 26.953 0 0 0-7.07-1.039c-5.976-.024-11.26 1.818-15.776 4.648"/></svg>