<?xml version="1.0" standalone="no"?>
<!DOCTYPE svg PUBLIC "-//W3C//DTD SVG 20010904//EN"
 "http://www.w3.org/TR/2001/REC-SVG-20010904/DTD/svg10.dtd">
<svg version="1.0" xmlns="http://www.w3.org/2000/svg"
 width="300.000000pt" height="135.000000pt" viewBox="0 0 300.000000 135.000000"
 preserveAspectRatio="xMidYMid meet">

<g transform="translate(0.000000,135.000000) scale(0.100000,-0.100000)"
fill="#da291c" stroke="none">
<path d="M750 1016 c-84 -22 -177 -103 -237 -204 -14 -24 -39 -80 -54 -125
-67 -193 -15 -322 141 -351 44 -8 140 17 198 50 41 24 42 25 42 4 0 -24 42
-70 63 -70 10 0 16 18 21 62 3 33 18 109 32 167 25 101 26 108 11 144 -30 69
-88 79 -224 36 -82 -27 -94 -42 -60 -77 l26 -26 63 21 c125 42 133 38 91 -38
-78 -144 -223 -227 -296 -169 -35 28 -41 64 -23 151 29 138 127 293 210 333
52 24 114 21 159 -10 43 -29 67 -26 67 10 0 33 -49 82 -96 95 -48 14 -77 13
-134 -3z"/>
<path d="M1476 727 c-14 -10 -20 -34 -26 -101 -7 -71 -13 -93 -31 -112 -28
-30 -50 -30 -75 -3 -16 18 -19 34 -16 100 3 103 -11 119 -98 119 -94 0 -172
-46 -212 -124 -30 -59 -22 -150 17 -184 25 -21 36 -24 95 -20 54 3 76 9 108
32 l41 28 29 -22 c30 -22 42 -23 98 -5 16 5 23 2 27 -15 4 -16 12 -21 28 -18
17 2 35 23 65 77 49 87 94 141 119 141 16 0 17 -9 13 -91 -5 -80 -3 -94 13
-110 28 -28 39 -24 89 32 113 129 109 125 120 109 5 -8 10 -27 10 -41 0 -95
79 -146 160 -104 27 14 32 14 55 -1 40 -26 141 -16 194 19 l42 28 35 -30 c41
-37 63 -43 134 -39 42 2 56 7 58 20 2 13 -7 18 -41 23 -53 8 -100 34 -123 69
-12 19 -16 47 -15 110 1 104 -10 116 -104 116 -115 0 -213 -84 -223 -191 -5
-54 -33 -86 -65 -73 -18 7 -37 62 -37 109 0 122 -63 150 -151 68 -55 -51 -69
-49 -69 13 0 45 -29 77 -70 77 -29 0 -43 -9 -88 -59 l-54 -59 4 49 c2 39 -1
50 -18 62 -17 12 -23 12 -38 1z m-229 -68 c18 -18 4 -110 -21 -137 -47 -53
-126 -70 -146 -31 -16 29 -4 72 33 113 50 56 109 80 134 55z m1061 2 c20 -12
5 -110 -22 -139 -47 -53 -126 -70 -146 -31 -16 29 -4 72 33 113 48 54 103 78
135 57z"/>
</g>
</svg>
