<svg xmlns="http://www.w3.org/2000/svg" xml:space="preserve" viewBox="0 0 646.4 187.2"><g fill="#00567D"><path d="M84.2 112.5h67.1v62h-4.5v-40h-.5c-4.4 13.7-12.2 24.4-23.5 32.1-11.3 7.7-24.9 11.5-40.9 11.5-12.3 0-23.3-2.2-32.7-6.7-9.5-4.4-17.4-10.5-23.7-18.1-6.3-7.6-11.1-16.5-14.3-26.8-3.2-10.2-4.9-21.1-4.9-32.7C6.3 82.1 8 71 11.5 60.7s8.4-19.3 14.9-26.9c6.5-7.6 14.4-13.6 23.7-18 9.3-4.4 20-6.6 31.8-6.6 9 0 17.4 1.3 25 3.8 7.6 2.6 14.3 6.2 20.1 11 5.8 4.7 10.5 10.4 14.2 17.1 3.7 6.6 6.2 14.1 7.6 22.4h-4.5c-1.4-7.5-3.8-14.3-7.3-20.4-3.5-6.1-8-11.3-13.3-15.7-5.4-4.4-11.5-7.7-18.5-10.1-7-2.3-14.7-3.5-23.2-3.5-11.3 0-21.3 2.1-30.2 6.3C43 24.3 35.5 30 29.4 37.3 23.3 44.5 18.7 53 15.5 62.7c-3.2 9.7-4.7 20.1-4.7 31.1s1.5 21.3 4.5 31 7.5 18.2 13.6 25.4c6 7.2 13.5 12.9 22.5 17.2 9 4.2 19.4 6.3 31.3 6.3 8.9 0 17.2-1.5 25.1-4.6 7.8-3.1 14.6-7.4 20.4-12.9 5.8-5.5 10.4-12 13.7-19.6 3.3-7.6 5-11.1 5-13.7v-6H84.2v-4.4zM175.1 139.1c1.7 6.7 4.4 12.5 8 17.5 3.6 5 8.3 8.9 14 11.8 5.7 2.9 12.7 4.3 21 4.3 12.2 0 22.3-3.2 30.4-9.6 8.1-6.4 13.1-16 15-28.8h4.5c-1.7 13.5-7 24.1-16 31.5-9 7.4-20.2 11.2-33.4 11.2-9 .2-16.7-1.3-23.1-4.3-6.4-3-11.6-7.3-15.7-12.8-4.1-5.5-7.1-12-9-19.4-2-7.5-2.9-15.5-2.9-24.1 0-9.6 1.4-18.2 4.3-25.8 2.9-7.5 6.6-13.9 11.3-19.1 4.7-5.2 10.1-9.1 16.3-11.9 6.2-2.7 12.5-4.1 19-4.1 9 0 16.8 1.7 23.4 5.2 6.6 3.5 11.9 8 16 13.8 4.1 5.7 7.1 12.3 9 19.6 1.9 7.4 2.7 15.1 2.4 23h-97.1c-.1 8.1.9 15.3 2.6 22zm86.8-46.5c-2-6.4-4.9-12-8.7-16.8-3.8-4.8-8.6-8.6-14.3-11.4-5.7-2.8-12.3-4.2-19.9-4.2-6.3 0-12.2 1.2-17.7 3.6-5.5 2.4-10.3 5.9-14.5 10.5-4.1 4.6-7.5 10.1-10.1 16.6-2.6 6.5-4.1 13.8-4.5 21.9h92.6c.1-7-.9-13.8-2.9-20.2zM382.3 13.2v161.3h-4.5V142h-.5c-3 10.4-8.6 18.8-16.6 25.3-8 6.5-18 9.7-29.9 9.7-7.7 0-14.6-1.5-20.7-4.5s-11.3-7.2-15.6-12.5c-4.3-5.3-7.6-11.7-9.8-19.1-2.3-7.4-3.4-15.4-3.4-24.2 0-8.1 1.1-15.9 3.3-23.3 2.2-7.4 5.3-13.9 9.5-19.4 4.1-5.6 9.3-10 15.5-13.3 6.2-3.3 13.3-5 21.2-5 12.3 0 22.5 3.3 30.5 9.7 8 6.5 13.3 15 16 25.5h.5V13.2h4.5zm-17.4 61.6c-8.6-9.7-19.9-14.6-34.1-14.6-7.8 0-14.6 1.7-20.3 5.1-5.7 3.4-10.4 7.8-14 13.1-3.6 5.3-6.3 11.4-8 18.1-1.7 6.7-2.6 13.4-2.6 20.2 0 7.4.9 14.4 2.8 21.2 1.9 6.8 4.7 12.8 8.3 18 3.7 5.2 8.4 9.3 14 12.3s12.2 4.5 19.8 4.5c7.5 0 14.2-1.5 20-4.5 5.8-3 10.7-7.1 14.7-12.2s7-11.1 9.1-17.8c2.1-6.8 3.2-13.9 3.2-21.4 0-18.3-4.3-32.3-12.9-42zM481.2 74c-5.3-5-12.6-7.5-22.1-7.5-6.8 0-12.7 1.4-17.8 4.3-5.1 2.9-9.4 6.6-12.8 11.3-3.4 4.7-6 10-7.7 15.9-1.7 5.9-2.6 12-2.6 18.2s.9 12.2 2.6 18.2c1.7 6 4.3 11.3 7.7 15.9 3.4 4.7 7.6 8.4 12.8 11.3 5.1 2.9 11.1 4.3 17.8 4.3 4.4 0 8.5-.8 12.4-2.5 3.9-1.7 7.4-4 10.4-6.9 3-2.9 5.5-6.4 7.4-10.5 2-4.1 3.2-8.5 3.6-13.3h14.2c-2 14.2-7.2 25.2-15.6 33.1-8.4 7.9-19.3 11.9-32.5 11.9-8.9 0-16.7-1.6-23.6-4.9-6.9-3.2-12.6-7.7-17.3-13.2-4.7-5.6-8.2-12.1-10.6-19.5-2.4-7.5-3.6-15.4-3.6-23.8s1.2-16.4 3.6-23.8c2.4-7.4 6-14 10.6-19.5 4.7-5.6 10.4-10 17.3-13.3 6.9-3.3 14.7-5 23.6-5 12.5 0 23.1 3.3 31.7 9.9 8.6 6.6 13.8 16.6 15.5 30H492c-1.9-8.8-5.5-15.6-10.8-20.6zM630.2 105.8h-14.5c0-4-1.1-7.8-1.1-7.8-1.7-5.9-4.3-11.3-7.7-15.9-3.4-4.7-7.7-8.4-12.8-11.3-5.1-2.9-11.1-4.3-17.8-4.3-6.8 0-12.7 1.4-17.8 4.3-5.1 2.9-9.4 6.6-12.8 11.3-3.4 4.7-6 10-7.7 15.9-1.7 5.9-2.6 12-2.6 18.2s.9 12.2 2.6 18.2c1.7 6 4.3 11.3 7.7 15.9 3.4 4.7 7.6 8.4 12.8 11.3 5.1 2.9 11.1 4.3 17.8 4.3 6.8 0 12.7-1.4 17.8-4.3 5.1-2.9 9.4-6.6 12.8-11.3 3.4-4.7 5.9-10 7.7-15.9h14.9l-1.7 5.7c-2.4 7.4-6 14-10.6 19.5-4.7 5.6-10.4 10-17.3 13.2-6.9 3.2-14.7 4.9-23.6 4.9-8.9 0-16.7-1.6-23.6-4.9-6.9-3.2-12.6-7.7-17.3-13.2-4.7-5.6-8.2-12.1-10.6-19.5-2.4-7.5-3.6-15.4-3.6-23.8s1.2-16.4 3.6-23.8c2.4-7.4 6-14 10.6-19.5 4.7-5.6 10.4-10 17.3-13.3 6.9-3.3 14.7-5 23.6-5 8.9 0 16.8 1.7 23.6 5 6.9 3.3 12.6 7.7 17.3 13.3 4.7 5.6 8 12.1 10.6 19.5 1.7 4.7 2.4 13.3 2.4 13.3z"/></g><path fill="#00567D" d="M636.3 92.1c.1.5.2 1 .2 1.5 0 6-8.6 10.9-19.1 10.9-6.3 0-11.9-1.7-15.3-4.4 1.2 5.3 9.2 9.4 18.9 9.4 10.6 0 19.1-4.9 19.1-10.9 0-2.5-1.4-4.7-3.8-6.5z"/><path fill="#00567D" d="M636.3 106.3c.1.5.2 1 .2 1.4 0 6-8.6 10.9-19.1 10.9-6.3 0-11.9-1.7-15.3-4.4 1.2 5.3 9.2 9.4 18.9 9.4 10.6 0 19.1-4.9 19.1-10.9 0-2.3-1.4-4.6-3.8-6.4z"/><path fill="#00567D" d="M636.3 120.5c.1.5.2 1 .2 1.4 0 6-8.6 10.9-19.1 10.9-6.3 0-11.9-1.7-15.3-4.4 1.3 5.3 9.2 9.4 18.9 9.4 10.6 0 19.1-4.9 19.1-10.9 0-2.3-1.4-4.6-3.8-6.4z"/></svg>