<?xml version="1.0" standalone="no"?>
<!DOCTYPE svg PUBLIC "-//W3C//DTD SVG 20010904//EN"
 "http://www.w3.org/TR/2001/REC-SVG-20010904/DTD/svg10.dtd">
<svg version="1.0" xmlns="http://www.w3.org/2000/svg"
 width="180.000000pt" height="180.000000pt" viewBox="0 0 180.000000 180.000000"
 preserveAspectRatio="xMidYMid meet">

<g transform="translate(0.000000,180.000000) scale(0.100000,-0.100000)"
fill="#092C74" stroke="none">
<path d="M1241 1124 c-27 -35 -27 -44 8 -112 42 -83 108 -160 182 -212 l64
-44 -64 69 c-71 76 -121 170 -141 264 -7 33 -16 61 -21 61 -4 0 -17 -12 -28
-26z"/>
<path d="M1200 972 c0 -70 29 -133 80 -174 43 -34 143 -59 162 -40 13 13 15
12 -66 31 -86 21 -146 90 -146 168 0 46 -8 73 -21 73 -5 0 -9 -26 -9 -58z"/>
<path d="M307 945 c-129 -45 -164 -200 -68 -296 60 -60 138 -74 211 -36 53 26
76 63 86 135 l7 52 -87 0 -86 0 0 -30 c0 -29 2 -30 45 -30 38 0 45 -3 45 -19
0 -11 -12 -29 -26 -40 -62 -49 -158 -5 -165 74 -4 50 3 69 36 102 34 34 37 35
101 31 63 -4 66 -3 80 24 14 27 14 27 -23 37 -51 15 -110 13 -156 -4z"/>
<path d="M616 945 c-42 -22 -55 -44 -56 -93 0 -55 29 -85 104 -107 31 -9 63
-23 71 -32 14 -14 14 -17 -2 -35 -15 -16 -27 -19 -68 -15 -27 2 -57 7 -66 11
-11 5 -19 -1 -27 -19 -7 -15 -10 -30 -7 -35 9 -15 114 -32 156 -25 22 4 53 18
69 32 25 20 30 33 30 67 0 55 -20 81 -77 101 -27 10 -60 22 -75 27 -31 11 -37
38 -13 58 11 9 32 11 70 6 47 -5 56 -4 65 13 17 32 12 38 -34 50 -61 15 -105
14 -140 -4z"/>
<path d="M944 950 c-65 -15 -66 -16 -49 -49 14 -27 17 -29 47 -20 72 20 128
-2 128 -51 0 -18 -7 -19 -69 -19 -108 1 -151 -30 -151 -108 0 -47 22 -81 66
-99 45 -19 73 -18 119 6 47 24 45 24 45 5 0 -10 11 -15 35 -15 l35 0 0 138 c0
118 -3 141 -20 169 -28 46 -102 64 -186 43z m126 -218 c0 -64 -92 -101 -132
-53 -23 29 -23 36 2 61 15 15 33 20 75 20 54 0 55 -1 55 -28z"/>
</g>
</svg>
