<?xml version="1.0" encoding="utf-8"?>
<!-- Generator: Adobe Illustrator 27.1.1, SVG Export Plug-In . SVG Version: 6.00 Build 0)  -->
<svg version="1.1" id="Capa_1" xmlns="http://www.w3.org/2000/svg" xmlns:xlink="http://www.w3.org/1999/xlink" x="0px" y="0px"
	 viewBox="0 0 983.03 516.95" style="enable-background:new 0 0 983.03 516.95;" xml:space="preserve">
<style type="text/css">
	.st0{fill:url(#SVGID_1_);}
	.st1{fill:#07277B;}
</style>
<g>
	<g>
		<linearGradient id="SVGID_1_" gradientUnits="userSpaceOnUse" x1="128.5412" y1="484.4939" x2="1014.2753" y2="58.0755">
			<stop  offset="0" style="stop-color:#1D6BD5"/>
			<stop  offset="0.4578" style="stop-color:#1251C5"/>
		</linearGradient>
		<path class="st0" d="M728.34,167.2H617.9L471.77,4.92h-97.28L0,434.29h289.26l163.55-181.44l39.44,72.12h90.72l71.28-71.28
			l163.13,180.59h165.66L728.34,167.2z M337.43,167.2l94.12-106.57c30.33,35.52,60.66,71.05,90.98,106.57H337.43z"/>
	</g>
	<polygon class="st1" points="24.28,421.33 379.27,12.81 461.68,12.81 98.24,421.33 	"/>
	<polygon class="st1" points="196.71,421.33 288.41,421.33 505.21,176.78 408.85,176.78 	"/>
	<path class="st1" d="M460.62,245.7c17.19-19.09,34.37-38.18,51.56-57.26c22.12,43.13,42.75,83.26,64.87,126.39
		c-26.48,0-52.97,0-79.45,0C485.28,291.79,472.95,268.74,460.62,245.7z"/>
	<path class="st1" d="M547.89,234.39c13.24,25.31,26.48,50.62,39.72,75.93c42.82-44.51,85.65-89.03,128.47-133.54h-119.6
		C580.29,195.98,564.09,215.19,547.89,234.39z"/>
	<polygon class="st1" points="818.96,422.84 660.87,247.56 727.68,178.29 959.26,422.84 	"/>
	<polygon class="st1" points="438.01,56.34 534.79,167.2 604.1,167.2 473.51,18.3 	"/>
	<g>
		<path class="st1" d="M12.03,492.94v11.32c0,2.44,0.27,3.96,0.8,4.56c0.73,0.84,1.82,1.26,3.29,1.26h1.49v1.06H0.97v-1.06h1.46
			c1.64,0,2.82-0.53,3.52-1.6c0.38-0.59,0.57-2,0.57-4.21v-25.1c0-2.44-0.26-3.96-0.77-4.55c-0.74-0.84-1.85-1.26-3.32-1.26H0.97
			v-1.06h14.24c3.48,0,6.22,0.36,8.22,1.08c2.01,0.72,3.7,1.92,5.07,3.62c1.38,1.7,2.06,3.71,2.06,6.05c0,3.17-1.05,5.75-3.14,7.74
			c-2.09,1.99-5.05,2.98-8.87,2.98c-0.94,0-1.95-0.07-3.04-0.2C14.44,493.41,13.28,493.21,12.03,492.94z M12.03,491.31
			c1.01,0.19,1.91,0.33,2.69,0.43c0.78,0.1,1.45,0.14,2.01,0.14c1.99,0,3.7-0.77,5.14-2.31c1.44-1.54,2.16-3.53,2.16-5.97
			c0-1.68-0.34-3.24-1.03-4.68s-1.66-2.52-2.92-3.24c-1.26-0.72-2.69-1.07-4.3-1.07c-0.97,0-2.23,0.18-3.75,0.54V491.31z"/>
		<path class="st1" d="M54.1,471.4c5.04,0,9.41,1.92,13.11,5.74c3.7,3.83,5.54,8.61,5.54,14.34c0,5.9-1.86,10.8-5.59,14.7
			s-8.23,5.85-13.52,5.85c-5.35,0-9.84-1.9-13.48-5.7c-3.64-3.8-5.46-8.72-5.46-14.76c0-6.17,2.1-11.2,6.3-15.1
			C44.65,473.09,49.02,471.4,54.1,471.4z M53.55,473.49c-3.48,0-6.27,1.29-8.37,3.87c-2.62,3.21-3.93,7.91-3.93,14.1
			c0,6.34,1.36,11.22,4.07,14.64c2.08,2.6,4.83,3.9,8.25,3.9c3.65,0,6.66-1.42,9.04-4.27c2.38-2.85,3.57-7.34,3.57-13.47
			c0-6.65-1.31-11.6-3.93-14.87C60.16,474.79,57.26,473.49,53.55,473.49z"/>
		<path class="st1" d="M108.66,500.39l0.95,0.2l-3.32,10.54H76.19v-1.06h1.46c1.64,0,2.82-0.53,3.52-1.6c0.4-0.61,0.6-2.02,0.6-4.24
			v-25.07c0-2.43-0.27-3.94-0.8-4.55c-0.74-0.84-1.85-1.26-3.32-1.26h-1.46v-1.06h17.59v1.06c-2.06-0.02-3.51,0.17-4.34,0.57
			c-0.83,0.4-1.4,0.91-1.71,1.52c-0.31,0.61-0.46,2.07-0.46,4.38v24.41c0,1.59,0.15,2.68,0.46,3.27c0.23,0.4,0.58,0.7,1.06,0.89
			c0.48,0.19,1.97,0.29,4.47,0.29h2.84c2.98,0,5.07-0.22,6.28-0.66c1.2-0.44,2.3-1.22,3.3-2.34
			C106.67,504.56,107.66,502.8,108.66,500.39z"/>
		<path class="st1" d="M128.97,510.08v1.06h-16.65v-1.06h1.38c1.61,0,2.77-0.47,3.5-1.4c0.46-0.61,0.69-2.08,0.69-4.41v-25.1
			c0-1.97-0.12-3.27-0.37-3.9c-0.19-0.48-0.58-0.89-1.17-1.23c-0.84-0.46-1.72-0.69-2.64-0.69h-1.38v-1.06h16.65v1.06h-1.4
			c-1.59,0-2.74,0.47-3.47,1.4c-0.48,0.61-0.72,2.08-0.72,4.41v25.1c0,1.97,0.12,3.27,0.37,3.9c0.19,0.48,0.59,0.89,1.2,1.23
			c0.82,0.46,1.69,0.69,2.61,0.69H128.97z"/>
		<path class="st1" d="M165.73,471.4l0.89,13.21h-0.89c-1.18-3.95-2.87-6.8-5.07-8.54s-4.83-2.61-7.91-2.61
			c-2.58,0-4.91,0.65-6.99,1.96s-3.72,3.4-4.91,6.26c-1.19,2.86-1.79,6.43-1.79,10.69c0,3.52,0.56,6.56,1.69,9.14
			c1.13,2.58,2.82,4.55,5.09,5.93c2.26,1.38,4.85,2.06,7.75,2.06c2.52,0,4.75-0.54,6.68-1.62c1.93-1.08,4.05-3.22,6.36-6.43
			l0.89,0.57c-1.95,3.46-4.22,5.99-6.82,7.59c-2.6,1.6-5.68,2.41-9.26,2.41c-6.44,0-11.42-2.39-14.96-7.16
			c-2.64-3.55-3.95-7.74-3.95-12.55c0-3.88,0.87-7.44,2.61-10.69c1.74-3.25,4.13-5.76,7.18-7.55c3.05-1.78,6.38-2.68,9.99-2.68
			c2.81,0,5.58,0.69,8.31,2.06c0.8,0.42,1.38,0.63,1.72,0.63c0.52,0,0.96-0.18,1.35-0.54c0.5-0.52,0.85-1.23,1.06-2.15H165.73z"/>
		<path class="st1" d="M203.19,500.39l0.95,0.2l-3.32,10.54h-30.09v-1.06h1.46c1.64,0,2.82-0.53,3.52-1.6
			c0.4-0.61,0.6-2.02,0.6-4.24v-25.07c0-2.43-0.27-3.94-0.8-4.55c-0.74-0.84-1.85-1.26-3.32-1.26h-1.46v-1.06h17.59v1.06
			c-2.06-0.02-3.51,0.17-4.34,0.57c-0.83,0.4-1.4,0.91-1.71,1.52c-0.31,0.61-0.46,2.07-0.46,4.38v24.41c0,1.59,0.15,2.68,0.46,3.27
			c0.23,0.4,0.58,0.7,1.06,0.89c0.48,0.19,1.97,0.29,4.47,0.29h2.84c2.98,0,5.07-0.22,6.28-0.66c1.2-0.44,2.3-1.22,3.3-2.34
			C201.2,504.56,202.19,502.8,203.19,500.39z"/>
		<path class="st1" d="M223.5,510.08v1.06h-16.65v-1.06h1.38c1.61,0,2.77-0.47,3.5-1.4c0.46-0.61,0.69-2.08,0.69-4.41v-25.1
			c0-1.97-0.12-3.27-0.37-3.9c-0.19-0.48-0.58-0.89-1.17-1.23c-0.84-0.46-1.72-0.69-2.64-0.69h-1.38v-1.06h16.65v1.06h-1.4
			c-1.59,0-2.74,0.47-3.47,1.4c-0.48,0.61-0.72,2.08-0.72,4.41v25.1c0,1.97,0.12,3.27,0.37,3.9c0.19,0.48,0.59,0.89,1.2,1.23
			c0.82,0.46,1.69,0.69,2.61,0.69H223.5z M221.58,459.65l-8.45,9.89h-0.97l3.01-9.89H221.58z"/>
		<path class="st1" d="M224.16,472.28h10.54l23.75,29.14v-22.41c0-2.39-0.27-3.88-0.8-4.47c-0.71-0.8-1.82-1.2-3.35-1.2h-1.35v-1.06
			h13.52v1.06h-1.38c-1.64,0-2.81,0.5-3.5,1.49c-0.42,0.61-0.63,2.01-0.63,4.18v32.75h-1.03l-25.62-31.29v23.93
			c0,2.39,0.26,3.88,0.77,4.47c0.73,0.8,1.84,1.2,3.35,1.2h1.38v1.06h-13.52v-1.06h1.35c1.66,0,2.84-0.5,3.52-1.49
			c0.42-0.61,0.63-2.01,0.63-4.18v-27.02c-1.13-1.32-1.98-2.19-2.56-2.61c-0.58-0.42-1.44-0.81-2.56-1.18
			c-0.55-0.17-1.39-0.26-2.52-0.26V472.28z"/>
		<path class="st1" d="M285.42,510.08v1.06h-16.65v-1.06h1.38c1.61,0,2.77-0.47,3.5-1.4c0.46-0.61,0.69-2.08,0.69-4.41v-25.1
			c0-1.97-0.12-3.27-0.37-3.9c-0.19-0.48-0.58-0.89-1.17-1.23c-0.84-0.46-1.72-0.69-2.64-0.69h-1.38v-1.06h16.65v1.06h-1.4
			c-1.59,0-2.74,0.47-3.47,1.4c-0.48,0.61-0.72,2.08-0.72,4.41v25.1c0,1.97,0.12,3.27,0.37,3.9c0.19,0.48,0.59,0.89,1.2,1.23
			c0.82,0.46,1.69,0.69,2.61,0.69H285.42z"/>
		<path class="st1" d="M322.19,471.4l0.89,13.21h-0.89c-1.18-3.95-2.87-6.8-5.07-8.54c-2.2-1.74-4.83-2.61-7.91-2.61
			c-2.58,0-4.91,0.65-6.99,1.96s-3.72,3.4-4.91,6.26c-1.19,2.86-1.79,6.43-1.79,10.69c0,3.52,0.56,6.56,1.69,9.14
			c1.13,2.58,2.82,4.55,5.09,5.93c2.26,1.38,4.85,2.06,7.75,2.06c2.52,0,4.75-0.54,6.68-1.62c1.93-1.08,4.05-3.22,6.36-6.43
			l0.89,0.57c-1.95,3.46-4.22,5.99-6.82,7.59c-2.6,1.6-5.68,2.41-9.26,2.41c-6.44,0-11.42-2.39-14.96-7.16
			c-2.64-3.55-3.95-7.74-3.95-12.55c0-3.88,0.87-7.44,2.61-10.69s4.13-5.76,7.18-7.55c3.05-1.78,6.38-2.68,9.99-2.68
			c2.81,0,5.58,0.69,8.31,2.06c0.8,0.42,1.38,0.63,1.72,0.63c0.52,0,0.96-0.18,1.35-0.54c0.5-0.52,0.85-1.23,1.06-2.15H322.19z"/>
		<path class="st1" d="M352.85,498.13H337.8l-2.64,6.13c-0.65,1.51-0.97,2.64-0.97,3.38c0,0.59,0.28,1.11,0.85,1.56
			c0.56,0.45,1.78,0.74,3.65,0.87v1.06h-12.24v-1.06c1.62-0.29,2.67-0.66,3.15-1.12c0.97-0.92,2.05-2.78,3.24-5.59l13.67-31.98h1
			l13.52,32.32c1.09,2.6,2.08,4.28,2.97,5.06c0.89,0.77,2.13,1.21,3.71,1.3v1.06h-15.33v-1.06c1.55-0.08,2.59-0.33,3.14-0.77
			s0.82-0.97,0.82-1.6c0-0.84-0.38-2.17-1.15-3.98L352.85,498.13z M352.04,496.01l-6.59-15.7l-6.76,15.7H352.04z"/>
		<path class="st1" d="M413.45,500.39l0.95,0.2l-3.32,10.54h-30.09v-1.06h1.46c1.64,0,2.82-0.53,3.52-1.6
			c0.4-0.61,0.6-2.02,0.6-4.24v-25.07c0-2.43-0.27-3.94-0.8-4.55c-0.74-0.84-1.85-1.26-3.32-1.26h-1.46v-1.06h17.59v1.06
			c-2.06-0.02-3.51,0.17-4.34,0.57c-0.83,0.4-1.4,0.91-1.71,1.52c-0.31,0.61-0.46,2.07-0.46,4.38v24.41c0,1.59,0.15,2.68,0.46,3.27
			c0.23,0.4,0.58,0.7,1.06,0.89c0.48,0.19,1.97,0.29,4.47,0.29h2.84c2.98,0,5.07-0.22,6.28-0.66c1.2-0.44,2.3-1.22,3.3-2.34
			C411.46,504.56,412.46,502.8,413.45,500.39z"/>
		<path class="st1" d="M442.5,498.13h-15.04l-2.64,6.13c-0.65,1.51-0.97,2.64-0.97,3.38c0,0.59,0.28,1.11,0.85,1.56
			c0.56,0.45,1.78,0.74,3.65,0.87v1.06h-12.24v-1.06c1.62-0.29,2.67-0.66,3.15-1.12c0.97-0.92,2.05-2.78,3.24-5.59l13.67-31.98h1
			l13.52,32.32c1.09,2.6,2.08,4.28,2.97,5.06c0.89,0.77,2.13,1.21,3.71,1.3v1.06h-15.33v-1.06c1.55-0.08,2.59-0.33,3.14-0.77
			s0.82-0.97,0.82-1.6c0-0.84-0.38-2.17-1.15-3.98L442.5,498.13z M441.7,496.01l-6.59-15.7l-6.76,15.7H441.7z"/>
		<path class="st1" d="M484.94,471.4v13.44h-1.06c-0.34-2.58-0.96-4.63-1.85-6.16c-0.89-1.53-2.15-2.74-3.8-3.64
			c-1.64-0.9-3.34-1.35-5.1-1.35c-1.99,0-3.63,0.61-4.93,1.82c-1.3,1.21-1.95,2.59-1.95,4.14c0,1.18,0.41,2.26,1.23,3.24
			c1.18,1.43,4,3.34,8.45,5.73c3.63,1.95,6.11,3.44,7.44,4.49c1.33,1.04,2.35,2.27,3.07,3.68c0.72,1.41,1.07,2.89,1.07,4.44
			c0,2.94-1.14,5.48-3.42,7.61c-2.28,2.13-5.22,3.2-8.81,3.2c-1.13,0-2.19-0.09-3.18-0.26c-0.59-0.1-1.82-0.44-3.68-1.05
			c-1.86-0.6-3.04-0.9-3.54-0.9c-0.48,0-0.86,0.14-1.13,0.43c-0.28,0.29-0.48,0.88-0.62,1.78h-1.06V498.7h1.06
			c0.5,2.79,1.16,4.88,2.01,6.26c0.84,1.39,2.13,2.54,3.85,3.45c1.73,0.92,3.62,1.38,5.69,1.38c2.39,0,4.27-0.63,5.66-1.89
			c1.38-1.26,2.08-2.75,2.08-4.47c0-0.96-0.26-1.92-0.79-2.89c-0.53-0.97-1.34-1.88-2.45-2.72c-0.75-0.57-2.78-1.79-6.1-3.65
			c-3.32-1.86-5.69-3.35-7.09-4.46c-1.4-1.11-2.47-2.33-3.2-3.67c-0.73-1.34-1.09-2.81-1.09-4.41c0-2.79,1.07-5.19,3.21-7.21
			c2.14-2.02,4.86-3.02,8.17-3.02c2.06,0,4.25,0.51,6.56,1.52c1.07,0.48,1.82,0.72,2.26,0.72c0.5,0,0.9-0.15,1.22-0.44
			c0.32-0.3,0.57-0.89,0.76-1.79H484.94z"/>
		<path class="st1" d="M529.36,511.14l-15.01-32.69v25.96c0,2.39,0.26,3.88,0.77,4.47c0.71,0.8,1.82,1.2,3.35,1.2h1.38v1.06h-13.52
			v-1.06h1.38c1.64,0,2.81-0.5,3.5-1.49c0.42-0.61,0.63-2.01,0.63-4.18v-25.39c0-1.72-0.19-2.96-0.57-3.73
			c-0.27-0.55-0.76-1.02-1.48-1.39c-0.72-0.37-1.87-0.56-3.45-0.56v-1.06h11l14.1,30.4l13.87-30.4h11v1.06h-1.35
			c-1.66,0-2.84,0.5-3.52,1.49c-0.42,0.61-0.63,2.01-0.63,4.18v25.39c0,2.39,0.27,3.88,0.8,4.47c0.71,0.8,1.82,1.2,3.35,1.2h1.35
			v1.06h-16.5v-1.06h1.38c1.66,0,2.83-0.5,3.5-1.49c0.42-0.61,0.63-2.01,0.63-4.18v-25.96l-14.99,32.69H529.36z"/>
		<path class="st1" d="M569.79,474.4v15.36h8.54c2.22,0,3.7-0.33,4.44-1c0.99-0.88,1.55-2.43,1.66-4.64h1.06v13.53h-1.06
			c-0.27-1.89-0.54-3.1-0.8-3.64c-0.34-0.67-0.91-1.19-1.69-1.58c-0.78-0.38-1.99-0.57-3.61-0.57h-8.54v12.81
			c0,1.72,0.08,2.77,0.23,3.14c0.15,0.37,0.42,0.67,0.8,0.89c0.38,0.22,1.11,0.33,2.18,0.33h6.59c2.2,0,3.79-0.15,4.79-0.46
			c0.99-0.3,1.95-0.91,2.87-1.81c1.18-1.18,2.4-2.97,3.64-5.36h1.15l-3.35,9.74h-29.94v-1.06h1.38c0.92,0,1.79-0.22,2.61-0.66
			c0.61-0.3,1.03-0.76,1.25-1.38c0.22-0.61,0.33-1.86,0.33-3.75v-25.24c0-2.46-0.25-3.98-0.74-4.56c-0.69-0.76-1.83-1.15-3.44-1.15
			h-1.38v-1.06h29.94l0.43,8.51h-1.12c-0.4-2.04-0.85-3.45-1.33-4.21c-0.49-0.76-1.21-1.35-2.16-1.75
			c-0.76-0.29-2.11-0.43-4.04-0.43H569.79z"/>
		<path class="st1" d="M633.03,511.14h-10.37l-13.15-18.17c-0.97,0.04-1.77,0.06-2.38,0.06c-0.25,0-0.52,0-0.8-0.01
			c-0.29-0.01-0.58-0.02-0.89-0.04v11.29c0,2.44,0.27,3.96,0.8,4.56c0.73,0.84,1.81,1.26,3.27,1.26h1.52v1.06h-16.65v-1.06h1.46
			c1.64,0,2.82-0.53,3.52-1.6c0.4-0.59,0.6-2,0.6-4.21v-25.1c0-2.44-0.27-3.96-0.8-4.55c-0.75-0.84-1.85-1.26-3.32-1.26h-1.46v-1.06
			h14.16c4.13,0,7.17,0.3,9.13,0.9c1.96,0.6,3.62,1.71,4.99,3.32c1.37,1.61,2.05,3.54,2.05,5.77c0,2.39-0.78,4.46-2.34,6.22
			c-1.56,1.76-3.97,3-7.24,3.73l8.02,11.15c1.83,2.56,3.41,4.26,4.73,5.1c1.32,0.84,3.04,1.38,5.16,1.6V511.14z M605.43,491.17
			c0.36,0,0.68,0,0.94,0.01c0.27,0.01,0.49,0.01,0.66,0.01c3.71,0,6.5-0.8,8.38-2.41c1.88-1.6,2.82-3.65,2.82-6.13
			c0-2.43-0.76-4.4-2.28-5.92c-1.52-1.52-3.53-2.28-6.03-2.28c-1.11,0-2.61,0.18-4.5,0.54V491.17z"/>
		<path class="st1" d="M667.84,471.4l0.89,13.21h-0.89c-1.18-3.95-2.87-6.8-5.07-8.54c-2.2-1.74-4.83-2.61-7.91-2.61
			c-2.58,0-4.91,0.65-6.99,1.96s-3.72,3.4-4.91,6.26c-1.19,2.86-1.79,6.43-1.79,10.69c0,3.52,0.56,6.56,1.69,9.14
			s2.82,4.55,5.09,5.93c2.26,1.38,4.85,2.06,7.75,2.06c2.52,0,4.75-0.54,6.68-1.62c1.93-1.08,4.05-3.22,6.36-6.43l0.89,0.57
			c-1.95,3.46-4.22,5.99-6.82,7.59c-2.6,1.6-5.68,2.41-9.26,2.41c-6.44,0-11.42-2.39-14.96-7.16c-2.64-3.55-3.95-7.74-3.95-12.55
			c0-3.88,0.87-7.44,2.61-10.69c1.74-3.25,4.13-5.76,7.18-7.55c3.05-1.78,6.38-2.68,9.99-2.68c2.81,0,5.58,0.69,8.31,2.06
			c0.8,0.42,1.38,0.63,1.72,0.63c0.52,0,0.96-0.18,1.35-0.54c0.5-0.52,0.85-1.23,1.06-2.15H667.84z"/>
		<path class="st1" d="M683.92,474.4v15.36h8.54c2.22,0,3.7-0.33,4.44-1c0.99-0.88,1.55-2.43,1.66-4.64h1.06v13.53h-1.06
			c-0.27-1.89-0.54-3.1-0.8-3.64c-0.34-0.67-0.91-1.19-1.69-1.58c-0.78-0.38-1.99-0.57-3.61-0.57h-8.54v12.81
			c0,1.72,0.08,2.77,0.23,3.14c0.15,0.37,0.42,0.67,0.8,0.89c0.38,0.22,1.11,0.33,2.18,0.33h6.59c2.2,0,3.79-0.15,4.79-0.46
			c0.99-0.3,1.95-0.91,2.87-1.81c1.18-1.18,2.4-2.97,3.64-5.36h1.15l-3.35,9.74h-29.94v-1.06h1.38c0.92,0,1.79-0.22,2.61-0.66
			c0.61-0.3,1.03-0.76,1.25-1.38c0.22-0.61,0.33-1.86,0.33-3.75v-25.24c0-2.46-0.25-3.98-0.74-4.56c-0.69-0.76-1.83-1.15-3.44-1.15
			h-1.38v-1.06h29.94l0.43,8.51h-1.12c-0.4-2.04-0.85-3.45-1.33-4.21c-0.49-0.76-1.21-1.35-2.16-1.75
			c-0.76-0.29-2.11-0.43-4.04-0.43H683.92z"/>
		<path class="st1" d="M747.16,511.14h-10.37l-13.15-18.17c-0.97,0.04-1.77,0.06-2.38,0.06c-0.25,0-0.52,0-0.8-0.01
			c-0.29-0.01-0.58-0.02-0.89-0.04v11.29c0,2.44,0.27,3.96,0.8,4.56c0.73,0.84,1.81,1.26,3.27,1.26h1.52v1.06H708.5v-1.06h1.46
			c1.64,0,2.82-0.53,3.52-1.6c0.4-0.59,0.6-2,0.6-4.21v-25.1c0-2.44-0.27-3.96-0.8-4.55c-0.75-0.84-1.85-1.26-3.32-1.26h-1.46v-1.06
			h14.16c4.13,0,7.17,0.3,9.13,0.9c1.96,0.6,3.62,1.71,4.99,3.32c1.37,1.61,2.05,3.54,2.05,5.77c0,2.39-0.78,4.46-2.34,6.22
			c-1.56,1.76-3.97,3-7.24,3.73l8.02,11.15c1.83,2.56,3.41,4.26,4.73,5.1c1.32,0.84,3.04,1.38,5.16,1.6V511.14z M719.56,491.17
			c0.36,0,0.68,0,0.95,0.01c0.27,0.01,0.49,0.01,0.66,0.01c3.71,0,6.5-0.8,8.38-2.41c1.88-1.6,2.82-3.65,2.82-6.13
			c0-2.43-0.76-4.4-2.28-5.92c-1.52-1.52-3.53-2.28-6.03-2.28c-1.11,0-2.61,0.18-4.5,0.54V491.17z"/>
		<path class="st1" d="M747.64,511.14v-1.06h1.46c1.64,0,2.81-0.52,3.5-1.58c0.42-0.63,0.63-2.04,0.63-4.24v-25.1
			c0-2.43-0.27-3.94-0.8-4.55c-0.75-0.84-1.85-1.26-3.32-1.26h-1.46v-1.06h15.82c5.81,0,10.22,0.66,13.25,1.98s5.46,3.52,7.31,6.59
			c1.84,3.07,2.76,6.63,2.76,10.66c0,5.41-1.64,9.92-4.93,13.55c-3.69,4.05-9.3,6.08-16.85,6.08H747.64z M758.73,508.33
			c2.43,0.54,4.46,0.8,6.1,0.8c4.43,0,8.11-1.56,11.03-4.67c2.92-3.11,4.38-7.34,4.38-12.66c0-5.37-1.46-9.6-4.38-12.69
			c-2.92-3.1-6.68-4.64-11.26-4.64c-1.72,0-3.68,0.28-5.87,0.83V508.33z"/>
		<path class="st1" d="M801.28,474.4v15.36h8.54c2.22,0,3.7-0.33,4.44-1c0.99-0.88,1.55-2.43,1.66-4.64h1.06v13.53h-1.06
			c-0.27-1.89-0.54-3.1-0.8-3.64c-0.34-0.67-0.91-1.19-1.69-1.58c-0.78-0.38-1.99-0.57-3.61-0.57h-8.54v12.81
			c0,1.72,0.08,2.77,0.23,3.14c0.15,0.37,0.42,0.67,0.8,0.89c0.38,0.22,1.11,0.33,2.18,0.33h6.59c2.2,0,3.79-0.15,4.79-0.46
			c0.99-0.3,1.95-0.91,2.87-1.81c1.18-1.18,2.4-2.97,3.64-5.36h1.15l-3.35,9.74h-29.94v-1.06h1.38c0.92,0,1.79-0.22,2.61-0.66
			c0.61-0.3,1.03-0.76,1.25-1.38c0.22-0.61,0.33-1.86,0.33-3.75v-25.24c0-2.46-0.25-3.98-0.74-4.56c-0.69-0.76-1.83-1.15-3.44-1.15
			h-1.38v-1.06h29.94l0.43,8.51h-1.12c-0.4-2.04-0.85-3.45-1.33-4.21c-0.49-0.76-1.21-1.35-2.16-1.75
			c-0.76-0.29-2.11-0.43-4.04-0.43H801.28z"/>
		<path class="st1" d="M851.77,471.4v13.44h-1.06c-0.34-2.58-0.96-4.63-1.85-6.16c-0.89-1.53-2.15-2.74-3.8-3.64
			c-1.64-0.9-3.34-1.35-5.1-1.35c-1.99,0-3.63,0.61-4.93,1.82c-1.3,1.21-1.95,2.59-1.95,4.14c0,1.18,0.41,2.26,1.23,3.24
			c1.18,1.43,4,3.34,8.45,5.73c3.63,1.95,6.11,3.44,7.44,4.49c1.33,1.04,2.35,2.27,3.07,3.68c0.72,1.41,1.07,2.89,1.07,4.44
			c0,2.94-1.14,5.48-3.42,7.61c-2.28,2.13-5.22,3.2-8.81,3.2c-1.13,0-2.19-0.09-3.18-0.26c-0.59-0.1-1.82-0.44-3.68-1.05
			c-1.86-0.6-3.04-0.9-3.54-0.9c-0.48,0-0.86,0.14-1.13,0.43c-0.28,0.29-0.48,0.88-0.62,1.78h-1.06V498.7h1.06
			c0.5,2.79,1.16,4.88,2.01,6.26c0.84,1.39,2.13,2.54,3.85,3.45c1.73,0.92,3.62,1.38,5.69,1.38c2.39,0,4.27-0.63,5.66-1.89
			c1.38-1.26,2.08-2.75,2.08-4.47c0-0.96-0.26-1.92-0.79-2.89c-0.53-0.97-1.34-1.88-2.45-2.72c-0.75-0.57-2.78-1.79-6.1-3.65
			c-3.32-1.86-5.69-3.35-7.09-4.46c-1.4-1.11-2.47-2.33-3.2-3.67c-0.73-1.34-1.09-2.81-1.09-4.41c0-2.79,1.07-5.19,3.21-7.21
			c2.14-2.02,4.86-3.02,8.17-3.02c2.06,0,4.25,0.51,6.56,1.52c1.07,0.48,1.82,0.72,2.26,0.72c0.5,0,0.9-0.15,1.22-0.44
			c0.32-0.3,0.57-0.89,0.76-1.79H851.77z"/>
		<path class="st1" d="M907.5,471.4l0.89,13.21h-0.89c-1.18-3.95-2.87-6.8-5.07-8.54c-2.2-1.74-4.83-2.61-7.91-2.61
			c-2.58,0-4.91,0.65-6.99,1.96s-3.72,3.4-4.91,6.26c-1.19,2.86-1.79,6.43-1.79,10.69c0,3.52,0.56,6.56,1.69,9.14
			s2.82,4.55,5.09,5.93c2.26,1.38,4.85,2.06,7.75,2.06c2.52,0,4.75-0.54,6.68-1.62c1.93-1.08,4.05-3.22,6.36-6.43l0.89,0.57
			c-1.95,3.46-4.22,5.99-6.82,7.59c-2.6,1.6-5.68,2.41-9.26,2.41c-6.44,0-11.42-2.39-14.96-7.16c-2.64-3.55-3.95-7.74-3.95-12.55
			c0-3.88,0.87-7.44,2.61-10.69c1.74-3.25,4.13-5.76,7.18-7.55c3.05-1.78,6.38-2.68,9.99-2.68c2.81,0,5.58,0.69,8.31,2.06
			c0.8,0.42,1.38,0.63,1.72,0.63c0.52,0,0.96-0.18,1.35-0.54c0.5-0.52,0.85-1.23,1.06-2.15H907.5z"/>
		<path class="st1" d="M918.65,505.58c0.9,0,1.65,0.31,2.26,0.93c0.61,0.62,0.92,1.37,0.92,2.25c0,0.88-0.31,1.63-0.93,2.25
			c-0.62,0.62-1.37,0.93-2.25,0.93c-0.88,0-1.63-0.31-2.25-0.93c-0.62-0.62-0.93-1.37-0.93-2.25c0-0.9,0.31-1.65,0.93-2.26
			C917.02,505.89,917.77,505.58,918.65,505.58z"/>
		<path class="st1" d="M952.83,498.13h-15.04l-2.64,6.13c-0.65,1.51-0.97,2.64-0.97,3.38c0,0.59,0.28,1.11,0.85,1.56
			c0.56,0.45,1.78,0.74,3.65,0.87v1.06h-12.24v-1.06c1.62-0.29,2.67-0.66,3.15-1.12c0.97-0.92,2.05-2.78,3.24-5.59l13.67-31.98h1
			l13.52,32.32c1.09,2.6,2.08,4.28,2.97,5.06c0.89,0.77,2.13,1.21,3.71,1.3v1.06h-15.33v-1.06c1.55-0.08,2.59-0.33,3.14-0.77
			c0.54-0.44,0.82-0.97,0.82-1.6c0-0.84-0.38-2.17-1.15-3.98L952.83,498.13z M952.03,496.01l-6.59-15.7l-6.76,15.7H952.03z"/>
		<path class="st1" d="M975.7,505.58c0.9,0,1.65,0.31,2.26,0.93c0.61,0.62,0.92,1.37,0.92,2.25c0,0.88-0.31,1.63-0.93,2.25
			c-0.62,0.62-1.37,0.93-2.25,0.93c-0.88,0-1.63-0.31-2.25-0.93c-0.62-0.62-0.93-1.37-0.93-2.25c0-0.9,0.31-1.65,0.93-2.26
			C974.07,505.89,974.82,505.58,975.7,505.58z"/>
	</g>
</g>
</svg>
