<?xml version="1.0" encoding="UTF-8"?>
<svg viewBox="0 0 1402.9 348.88" xmlns="http://www.w3.org/2000/svg">
<defs>
<style>.cls-1{fill:#019df4;}</style>
</defs>
<g data-name="Capa 2">
<g data-name="Capa 1">
<g data-name="#019df4ff">
<path class="cls-1" d="M380.33.44a56.27,56.27,0,0,1,37.6,8.5c14.48,9.36,24.41,24.27,31.13,39.88,16.15,37.52,22.26,78.57,23.35,119.17.83,24.38-1.39,48.76-5.14,72.83-1.56,8.75-3.24,17.78-8,25.43-4.27,7-10.91,13-19.09,14.86-8.69,2-18.7-1.1-23.71-8.71-6.69-9.82-6.25-22.32-5.22-33.64,2.32-23.2,5.27-46.46,4.59-69.83-.4-9-1.21-18.3-5.55-26.34-4.63-8.72-15.39-14.07-25.08-11.43-7.41,1.94-13.6,6.86-18.81,12.29C356,154.51,348.9,168.13,343,182c-9.44,21.79-16.53,44.49-23.64,67.11-4.88,15.07-8.73,30.69-16.69,44.54-7.31,13.2-18.09,24.69-31.58,31.65-13.56,7.14-29,9.9-44.15,10.6a83.59,83.59,0,0,1-38.83-6.92c-17.4-7.78-31.38-21.84-41.13-38-15.54-26-30.26-52.46-45.41-78.68-4-6.76-8.25-13.56-14-19-3.41-3.21-7.79-5.91-12.64-5.72s-10.06,2.29-13.17,6.31c-3.32,4.29-4.47,9.81-5,15.1-1,11.4,1.12,22.79,3.72,33.86,4.14,17.24,9.89,34,14.93,51,2.81,10.17,6.2,20.43,6.18,31.09.08,8.38-3.68,17.26-11.32,21.35-10.4,5.36-24.58,2.28-31.67-7.11-9-11.36-13.32-25.41-18.17-38.84-10.23-30.58-17.9-62.26-20-94.51a255.55,255.55,0,0,1,4.94-67c4.17-20.36,10.17-40.67,20.86-58.63,8-13.49,19.11-25.57,33.28-32.66a67.81,67.81,0,0,1,50.93-4c14.29,4.83,25.19,15.88,35.17,26.71,15.39,18.75,28.17,39.46,41,60,8.16,13.85,18.47,27.4,33.19,34.71a39.93,39.93,0,0,0,40.44-2.72c9.26-6.45,15-16.65,19.12-26.9,11.79-28.69,22.65-57.82,36.18-85.76C328.18,24.68,351.93,3.9,380.33.44Z"/>
<path class="cls-1" d="M1010.26,95.43a32.3,32.3,0,0,1,15.9.32c4.77,1.42,7.64,6.29,7.74,11.1.29,5.25.56,11.56-3.65,15.46-4.17,3.74-10.2,3.48-15.42,3.34-4.71-.1-10-2-12-6.59-1.85-4.44-1.59-9.46-1-14.14A11.22,11.22,0,0,1,1010.26,95.43Z"/>
<path class="cls-1" d="m613.29 243.8q0-70.68 0-141.37h25.47c14.9 26.23 29.62 52.58 44.62 78.76 15.26-26.26 30.67-52.44 45.9-78.72 8.29-0.08 16.58 0 24.87 0q0 70.68 0 141.36h-29.63q0-40.51 0-81c-9.7 16.31-19.47 32.57-29.14 48.9q-12.46 0-24.91 0-15-24.91-30.05-49.81 0 41 0 82z"/>
<path class="cls-1" d="m1158.2 120a112.81 112.81 0 0 1 29.61-4.37v26.91h26.22v19.36h-26.24v48.95c0 4.58 0.83 10.49 5.75 12.38 7.35 2.5 15.2 0.64 22.72 0 0.37 7 0.69 14 1 21a130.83 130.83 0 0 1-31.35 2.27c-7.61-0.54-15.8-2.59-21-8.55-5.45-6.3-6.64-15-6.79-23q0-26.5 0-53h-17.13v-16.29c5.7-1 11.39-2.07 17.1-3.08 0.14-7.58 0.09-15.06 0.11-22.58z"/>
<path class="cls-1" d="M813.45,140.65c15.6-2.31,33-1.1,46.06,8.63C870.69,157.54,876,171.5,877.12,185c1.27,15.86-.61,33.3-11.12,46-9.39,11.44-24.77,15.84-39.1,15.75-13.79.3-28.61-3.11-38.55-13.24S774.77,208.77,774.54,195c-.27-13.94,2.4-28.86,11.67-39.77,6.81-8.13,16.91-12.88,27.24-14.57m4.81,22.83c-5.51,1.8-9.21,6.92-10.74,12.32-2.28,7.78-2.35,16-1.87,24.07.58,6.85,1.82,14.36,6.86,19.47,4.25,4.26,10.67,5.17,16.42,4.61a16.65,16.65,0,0,0,12.34-6.68c3.78-5.35,4.71-12.08,5.17-18.45.28-8.32.33-16.93-2.58-24.85-1.71-4.76-5.37-9-10.26-10.55A25.49,25.49,0,0,0,818.26,163.48Z"/>
<path class="cls-1" d="m1059.6 150.64c7.28-7 17.48-9.73 27.28-10.64a106 106 0 0 1 41.86 5.24c-0.81 7.26-1.53 14.53-2.31 21.79a130.73 130.73 0 0 0-31.48-4.53c-4.61 0.1-9.61 0.26-13.5 3a6.54 6.54 0 0 0-0.16 10.11c3.3 2.6 7.58 3.39 11.59 4.29 10.18 2.1 21 3.35 29.87 9.24a25.28 25.28 0 0 1 10.88 16.7c1.83 9.94 0.28 21.29-7 28.81-7.8 8.2-19.48 10.93-30.37 11.8a120.75 120.75 0 0 1-43.23-5.27q1.13-11 2.28-22a125.92 125.92 0 0 0 32.58 4.76c5.08-0.13 10.58-0.12 15-2.91 3.87-2.51 4.36-8.91 0.58-11.73-4.49-3.27-10.23-3.81-15.51-4.89-9.63-1.78-20-3.37-27.8-9.7-6.5-5.14-9.31-13.62-9.21-21.69-0.28-8.23 2.59-16.7 8.65-22.38z"/>
<path class="cls-1" d="m1237.9 143.36a185.59 185.59 0 0 1 40-3.64c9.17 0.42 18.69 1.81 26.68 6.64 6.16 3.65 10.12 10.16 11.88 17 2.38 8.69 1.48 17.77 1.66 26.66q0 26.91 0 53.81h-23.47a59.74 59.74 0 0 0-2.51-6 58 58 0 0 1-25.24 8.73c-9.43 0.78-19.51-0.4-27.51-5.82a29.56 29.56 0 0 1-12.35-19.74c-1.77-9.8-0.18-20.76 6.4-28.55 4.53-5.51 11.46-8.35 18.31-9.66 12.12-2.32 24.5-1.35 36.76-1.56 0-4.89 0.3-10.61-3.47-14.33-4.34-3.93-10.59-4.19-16.13-4.35a160.34 160.34 0 0 0-29.5 2.67q-0.79-10.9-1.46-21.81m26 57.75c-10.25 1.83-10.82 19.06-1 21.93 8.42 2.45 17.3 0.09 25.54-2q0-10.36 0-20.72c-8.21 0.26-16.52-0.84-24.59 0.74z"/>
<path class="cls-1" d="m1366.8 150.63c10-8.14 23.4-11.75 36.12-10.44v26a90.69 90.69 0 0 0-33.24 1.66q0 38 0 75.94h-29.62q0-50.62 0-101.24h25.72q0.54 4.04 1.02 8.08z"/>
<path class="cls-1" d="m884.56 142.56h31.92c7.6 23.18 14.72 46.53 22.51 69.66 7.27-23.19 14.17-46.49 21.42-69.68 9.87 0.08 19.75 0 29.62 0q-17.4 50.63-34.89 101.24h-34.44q-18.06-50.6-36.14-101.22z"/>
<path class="cls-1" d="m1002.9 142.56h29.59q0.07 50.63 0 101.25h-29.62q0.02-50.62 0.03-101.25z"/>
</g>
</g>
</g>
</svg>
