<svg xmlns="http://www.w3.org/2000/svg" xmlns:xlink="http://www.w3.org/1999/xlink" id="Group_567" data-name="Group 567" viewBox="0 0 349.083 58.781"><defs><linearGradient id="linear-gradient" x1=".5" x2=".5" y1=".052" y2="1.02" gradientUnits="objectBoundingBox"><stop offset="0" stop-color="#5d4b93"/><stop offset=".446" stop-color="#5b498e"/><stop offset="1" stop-color="#524281"/></linearGradient><linearGradient xlink:href="#linear-gradient" id="linear-gradient-2" x1=".5" x2=".5" y1=".049" y2="1.02"/><linearGradient xlink:href="#linear-gradient" id="linear-gradient-3" x1=".501" x2=".501" y1=".058" y2="1.011"/><linearGradient xlink:href="#linear-gradient" id="linear-gradient-4" x1=".499" x2=".499" y1=".049" y2="1.02"/><linearGradient xlink:href="#linear-gradient" id="linear-gradient-5" x1=".5" x2=".5" y1=".049" y2="1.02"/><linearGradient xlink:href="#linear-gradient" id="linear-gradient-6" x1=".5" x2=".5" y1=".049" y2="1.017"/><linearGradient xlink:href="#linear-gradient" id="linear-gradient-7" x1=".498" x2=".498" y1=".049" y2="1.014"/><linearGradient xlink:href="#linear-gradient" id="linear-gradient-8" x1=".501" x2=".501" y1=".049" y2="1.02"/><linearGradient xlink:href="#linear-gradient" id="linear-gradient-9" x1=".494" x2=".494" y1=".055" y2="1.017"/><linearGradient xlink:href="#linear-gradient" id="linear-gradient-10" x1="-.001" x2="1.002" y1=".498" y2=".498"/><style>.cls-1{fill:#81bf4b}.cls-13{fill:#fff}</style></defs><path id="Path_3569" d="M94.931 20.027 90.424 8.311l-4.606 11.716-2.4 6.108-2.3 5.908H72.8L86.519.2h8.311l13.719 32.545-9.213-1.2-2-5.407" class="cls-1" data-name="Path 3569" transform="translate(.101)"/><path id="Path_3570" d="M17.524 6.809v25.235H9.513V6.809H0V.2h27.138v6.609Z" data-name="Path 3570" style="fill:url(#linear-gradient)"/><path id="Path_3571" d="M46.52 23.132h-6.309v8.912H32.1V.3h14.22c8.412 0 13.218 4.006 13.218 11.115 0 4.807-2 8.311-5.808 10.214l6.709 10.414h-9.213Zm-.2-6.409c3.5 0 5.508-1.8 5.508-5.107s-2-5.007-5.508-5.007h-6.109v10.114Z" data-name="Path 3571" style="fill:url(#linear-gradient-2)" transform="translate(.044)"/><path id="Path_3572" d="m151.841 5.307-4.707 5.508a11.062 11.062 0 0 0-8.011-4.106 8.858 8.858 0 0 0-8.812 9.213c0 5.307 3.805 9.313 8.812 9.313a11.7 11.7 0 0 0 8.011-3.705l4.707 5.007a19.081 19.081 0 0 1-13.118 5.808c-9.613 0-16.723-7.01-16.723-16.323C122 6.809 129.31 0 138.923 0a18.863 18.863 0 0 1 12.918 5.307" data-name="Path 3572" style="fill:url(#linear-gradient-3)" transform="translate(.169)"/><path id="Path_3573" d="m169.317 19.527-4.206 4.707v7.811H157.1V.3h8.011v13.719L177.328.3h9.313l-11.817 13.118 12.617 18.626h-9.713Z" data-name="Path 3573" style="fill:url(#linear-gradient-4)" transform="translate(.217)"/><path id="Path_3574" d="M200.611 6.609v6.309h15.121v6.409h-15.121v6.309h17.224v6.409H192.5V.3h24.834v6.309Z" data-name="Path 3574" style="fill:url(#linear-gradient-5)" transform="translate(.266)"/><path id="Path_3575" d="M239.02 23.132h-6.309v8.912H224.6V.3h14.22c8.412 0 13.218 4.006 13.218 11.115 0 4.807-2 8.311-5.808 10.214l6.709 10.515h-9.213Zm-.2-6.409c3.5 0 5.508-1.8 5.508-5.107s-2-5.007-5.508-5.007h-6.108v10.114Z" data-name="Path 3575" style="fill:url(#linear-gradient-6)" transform="translate(.311)"/><path id="Path_3576" d="M286.039 16.522v11.516a19.5 19.5 0 0 1-11.816 4.206A16.183 16.183 0 0 1 257.7 16.222C257.7 7.31 265.11.3 274.423.3a18.28 18.28 0 0 1 11.716 4.306l-2.1 2.6a14.77 14.77 0 0 0-9.616-3.706 12.764 12.764 0 0 0-13.018 12.517 12.808 12.808 0 0 0 13.118 12.617 14.688 14.688 0 0 0 8.311-2.7v-9.612h3.2Z" data-name="Path 3576" style="fill:url(#linear-gradient-7)" transform="translate(.357)"/><path id="Path_3577" d="M308.216.3c7.811 0 12.417 3.905 12.417 10.615 0 7.01-4.506 11.115-12.417 11.115H299.9v10.014h-3.6V.3ZM299.9 18.525h8.211c5.708 0 9.012-2.5 9.012-7.51 0-4.807-3.3-7.21-9.012-7.21H299.9Z" data-name="Path 3577" style="fill:url(#linear-gradient-8)" transform="translate(.41)"/><path id="Path_3578" d="m347.731 3.1-1.5 3.4a16.554 16.554 0 0 0-8.712-2.7c-4.106 0-6.709 1.5-6.709 4.206 0 8.211 17.825 3.905 17.825 15.421 0 5.307-4.707 8.712-11.516 8.712A18.1 18.1 0 0 1 325 27.338l1.6-3.3a15.579 15.579 0 0 0 10.615 4.506c4.606 0 7.41-1.9 7.41-4.907 0-8.311-17.825-3.905-17.825-15.321C326.8 3.3 331.209.1 337.818.1a18.369 18.369 0 0 1 9.914 3" data-name="Path 3578" style="fill:url(#linear-gradient-9)" transform="translate(.45)"/><path id="Path_3579" d="M122.484 25.529a12.7 12.7 0 0 0-2.1-3 27.7 27.7 0 0 0-5.608-4.707 59.46 59.46 0 0 0-13.619-6.609c-.8-.2-1-.3-1.1-.4a3.537 3.537 0 0 0-1.2-.4l-1.5-.4 1.4.7c1.9 1 2.9 1.5 3.3 1.8-.2-.1-.6-.2-1.1-.4q-.3-.15-.3 0l-1-.5.9.6v.1l.1.1a1.692 1.692 0 0 0 .5.2l1.6 1a60.75 60.75 0 0 1 11.816 8.211c1.1 1.1 3.1 3 3.705 4.907 0 .1.1.2.1.3v.1a2.2 2.2 0 0 1 .1.8 1.27 1.27 0 0 1-.1.6c-.9 2.9-5.908 3.2-8.311 3.2a46.651 46.651 0 0 1-11.216-1.6c-9.413-2.3-19.527-6.008-27.338-11.916C62.9 11.71 65.606 8.706 66.707 7.9a.52.52 0 0 1 .4-.2c1.5-.9 3.705-1.4 6.91-1.6a51.322 51.322 0 0 1 10.014.4l.1-.3a67.876 67.876 0 0 0-10.214-1.6h-1.5a17.262 17.262 0 0 0-6.809 1.2 6.851 6.851 0 0 0-3.3 2.7 5.541 5.541 0 0 0-.6 3.805 12.938 12.938 0 0 0 3.6 6.108 45.45 45.45 0 0 0 12.017 8.712c2.1 1.1 4.406 2.2 7.01 3.3a65 65 0 0 0 7.41 2.6 68.751 68.751 0 0 0 7.811 1.9 52.005 52.005 0 0 0 8.311 1h1.9a28.864 28.864 0 0 0 6.809-.8 12.324 12.324 0 0 0 4.306-2 6.909 6.909 0 0 0 1.6-1.8l.2-.4.2-.6a4.258 4.258 0 0 0 .2-1.1 5 5 0 0 0-.598-3.696Z" data-name="Path 3579" style="fill:url(#linear-gradient-10)" transform="translate(.085 .006)"/><path id="Path_3580" d="m87.01 16.823-6.91-1.8L86.509.2h5.107Z" class="cls-1" data-name="Path 3580" transform="translate(.111)"/><path id="Path_3581" d="M103.611 10.806A4.106 4.106 0 1 1 99.506 6.7a4.124 4.124 0 0 1 4.106 4.106" data-name="Path 3581" style="fill:#5b498e" transform="translate(.132 .009)"/><g id="Group_418" data-name="Group 418" transform="translate(32.144 47.065)"><g id="Group_417" data-name="Group 417"><path id="Path_3582" d="M38.509 54.51v2H32.1V47.1h2.4v7.41Z" class="cls-13" data-name="Path 3582" transform="translate(-32.1 -47)"/><path id="Path_3583" d="m45.6 54.811-.7 1.7h-2.5l4.106-9.411h2.5l4.006 9.413h-2.6l-.7-1.7Zm2.1-5.307-1.4 3.5H49Z" class="cls-13" data-name="Path 3583" transform="translate(-32.086 -47)"/><path id="Path_3584" d="M69.007 49v7.51H66.6V49h-2.8v-1.9h8.011V49Z" class="cls-13" data-name="Path 3584" transform="translate(-32.056 -47)"/><path id="Path_3585" d="M81.006 53.809H79.1v2.6h-2.4V47h4.206c2.5 0 3.905 1.2 3.905 3.3a3.09 3.09 0 0 1-1.7 3l2 3.1h-2.7Zm-.1-1.8a1.505 1.505 0 1 0 0-3H79.1v3Z" class="cls-13" data-name="Path 3585" transform="translate(-32.038 -47)"/><path id="Path_3586" d="m92.4 54.811-.7 1.7h-2.5l4.106-9.411h2.5l4.006 9.413h-2.6l-.7-1.7Zm2.1-5.307-1.4 3.5h2.7Z" class="cls-13" data-name="Path 3586" transform="translate(-32.021 -47)"/><path id="Path_3587" d="M111.009 56.513 106.7 50.7v5.808h-2.2V47.1h2.1l4.306 5.808V47.1h2.2v9.413Z" class="cls-13" data-name="Path 3587" transform="translate(-32 -47)"/><path id="Path_3588" d="M128.915 57.715a4.5 4.5 0 0 1-2.7 1 3.325 3.325 0 0 1-3-2.1 4.83 4.83 0 0 1-4.907-4.807A4.881 4.881 0 0 1 123.407 47a4.821 4.821 0 0 1 5.107 4.807 4.668 4.668 0 0 1-3.1 4.506 1.384 1.384 0 0 0 1.1.6 3.535 3.535 0 0 0 1.6-.7Zm-5.608-3.1a2.637 2.637 0 0 0 2.6-2.8 2.658 2.658 0 1 0-5.307 0 2.78 2.78 0 0 0 2.707 2.796Z" class="cls-13" data-name="Path 3588" transform="translate(-31.981 -47)"/><path id="Path_3589" d="M142.012 52.508a4.311 4.311 0 0 1-8.612 0V47h2.4v5.508a1.921 1.921 0 0 0 2 2.1 1.9 1.9 0 0 0 1.9-2.1V47h2.4v5.508Z" class="cls-13" data-name="Path 3589" transform="translate(-31.96 -47)"/><path id="Path_3590" d="M147.6 56.513V47.1h2.4v9.413Z" class="cls-13" data-name="Path 3590" transform="translate(-31.94 -47)"/><path id="Path_3591" d="M162.109 54.51v2H155.7V47.1h2.4v7.41Z" class="cls-13" data-name="Path 3591" transform="translate(-31.929 -47)"/><path id="Path_3592" d="M167.1 56.513V47.1h2.4v9.413Z" class="cls-13" data-name="Path 3592" transform="translate(-31.913 -47)"/><path id="Path_3593" d="M179.206 47.1c3 0 5.007 1.9 5.007 4.706s-2.1 4.707-5.107 4.707H175.1V47.1Zm-1.6 7.51h1.7a2.508 2.508 0 0 0 2.5-2.8 2.581 2.581 0 0 0-2.6-2.8h-1.6v5.6Z" class="cls-13" data-name="Path 3593" transform="translate(-31.902 -47)"/><path id="Path_3594" d="m191.2 54.811-.7 1.7H188l4.106-9.413h2.5l4.006 9.413h-2.6l-.7-1.7Zm2.1-5.307-1.4 3.5h2.7Z" class="cls-13" data-name="Path 3594" transform="translate(-31.884 -47)"/><path id="Path_3595" d="M207.306 47.1c3 0 5.007 1.9 5.007 4.706s-2.1 4.707-5.107 4.707H203.2V47.1Zm-1.6 7.51h1.7a2.508 2.508 0 0 0 2.5-2.8 2.581 2.581 0 0 0-2.6-2.8h-1.6Z" class="cls-13" data-name="Path 3595" transform="translate(-31.863 -47)"/><path id="Path_3596" d="M228.406 47.1c3 0 5.007 1.9 5.007 4.706s-2.1 4.707-5.107 4.707H224.3V47.1Zm-1.6 7.51h1.7a2.508 2.508 0 0 0 2.5-2.8 2.581 2.581 0 0 0-2.6-2.8h-1.6Z" class="cls-13" data-name="Path 3596" transform="translate(-31.834 -47)"/><path id="Path_3597" d="M240.9 49v1.9h4.506v1.9H240.9v1.9h5.107v1.9H238.5v-9.4h7.41V49Z" class="cls-13" data-name="Path 3597" transform="translate(-31.814 -47)"/><path id="Path_3598" d="m265.711 48-.9 1.9a6.64 6.64 0 0 0-3-1c-.6 0-1 .2-1 .7 0 1.6 5.007.7 5.007 4.106 0 1.9-1.7 2.9-3.805 2.9a7.009 7.009 0 0 1-4.306-1.5l.9-1.8a6.217 6.217 0 0 0 3.4 1.4c.8 0 1.2-.3 1.2-.8 0-1.7-5.007-.7-5.007-4.006 0-1.7 1.5-2.8 3.805-2.8a6.382 6.382 0 0 1 3.706.9Z" class="cls-13" data-name="Path 3598" transform="translate(-31.788 -47)"/><path id="Path_3599" d="m273 54.811-.7 1.7h-2.5l4.106-9.413h2.5l4.006 9.413h-2.6l-.7-1.7Zm2-5.307-1.4 3.5h2.7Z" class="cls-13" data-name="Path 3599" transform="translate(-31.771 -47)"/><path id="Path_3600" d="M289.506 47.1c2.1 0 3.5.9 3.5 2.4a2.136 2.136 0 0 1-1.6 2.1 2.3 2.3 0 0 1 1.9 2.4c0 1.6-1.4 2.6-3.605 2.6H285v-9.4h4.506Zm-2.1 3.705h1.9a1.006 1.006 0 1 0 0-2h-1.9Zm0 3.805h1.9c.9 0 1.4-.4 1.4-1.1 0-.6-.6-1-1.4-1h-1.9Z" class="cls-13" data-name="Path 3600" transform="translate(-31.75 -47)"/><path id="Path_3601" d="M300.9 49v1.9h4.506v1.9H300.9v1.9h5.107v1.9H298.5v-9.4h7.41V49Z" class="cls-13" data-name="Path 3601" transform="translate(-31.731 -47)"/><path id="Path_3602" d="M315.706 53.809h-1.9v2.6h-2.4V47h4.206c2.5 0 3.905 1.2 3.905 3.3a3.09 3.09 0 0 1-1.7 3l2 3.1h-2.8Zm-.1-1.8a1.505 1.505 0 1 0 0-3h-1.8v3Z" class="cls-13" data-name="Path 3602" transform="translate(-31.713 -47)"/></g></g></svg>