<svg xmlns="http://www.w3.org/2000/svg" width="423" height="64" fill="none"><g fill="#0075c9" clip-path="url(#a)"><path fill-rule="evenodd" d="m236.04 12.8-9.03 16.6 10.36 18.31h-9.64l-4.35-8.11a33.1 33.1 0 0 1-1.15-2.43c-.43 1.35-.79 2.34-1.07 2.97l-4.19 7.57h-8.95l10.31-18.31-9.51-16.6h9.51l3.91 7.21c.29.77.53 1.53.72 2.28.22-.68.58-1.68 1.07-2.99l3.35-6.5h8.67-.01ZM239.47 12.8h27.24v6.5h-9.31v28.41h-8.67V19.3h-9.26v-6.5Z" clip-rule="evenodd"/><path d="M347.76 12.8h-8.67v34.91h8.67V12.8Z"/><path fill-rule="evenodd" d="M371.4 18.25c-.9 0-1.72.25-2.46.74-.73.49-1.3 1.17-1.69 2.02-.85 1.91-1.28 4.96-1.28 9.16s.27 6.96.82 8.75c.31 1.01.89 1.83 1.74 2.48.77.58 1.67.87 2.71.87 2.32 0 3.84-1.19 4.55-3.58.6-2.03.89-4.89.9-8.59 0-4.16-.31-7.08-.92-8.75-.75-2.06-2.21-3.09-4.37-3.09v-.01Zm.39-6.14c5.01 0 8.78 1.88 11.3 5.63 2.15 3.17 3.22 7.25 3.22 12.22 0 5.46-1.18 9.89-3.53 13.3-2.37 3.43-6.27 5.14-11.71 5.14-4.69 0-8.24-1.53-10.64-4.58-2.64-3.34-3.97-7.7-3.97-13.07s1.04-9.53 3.12-12.79c2.51-3.9 6.57-5.86 12.2-5.86l.01.01Z" clip-rule="evenodd"/><path d="M181.08 12.8h21.41v6.5h-14.27v7.11h11.76v6.5h-11.76v8.31h15.19v6.5h-22.34c-.84 0-1.51-.67-1.51-1.51V14.33c0-.84.68-1.52 1.53-1.52l-.01-.01Z"/><path fill-rule="evenodd" d="M274.37 12.8h21.06v6.5h-14.27v7.11h11.76v6.5h-11.76v8.31h15.19v6.5h-21.97a1.89 1.89 0 0 1-1.89-1.9V14.71c0-1.05.82-1.9 1.88-1.9v-.01ZM313.53 26.41h3.15c3.1 0 4.65-1.18 4.65-3.56 0-1.69-.69-2.75-2.07-3.2-.74-.24-1.77-.36-3.1-.36h-2.63v7.12Zm-8.67-11.7c0-1.05.83-1.9 1.88-1.9h9.91c2.64 0 4.74.16 6.29.48 2.34.48 4.18 1.64 5.52 3.48 1.21 1.62 1.82 3.54 1.82 5.76 0 2.56-.66 4.65-1.97 6.29-.94 1.18-2.33 2.05-4.17 2.61l7.62 16.29h-9.44l-6.6-14.81-.33.1h-1.66l-.2-.1v14.81h-8.67V14.71ZM403.18 26.41h3.15c3.1 0 4.65-1.18 4.65-3.56 0-1.69-.69-2.75-2.07-3.2-.73-.24-1.77-.36-3.09-.36h-2.63v7.11l-.01.01Zm-8.67-11.7c0-1.05.83-1.9 1.88-1.9h9.91c2.64 0 4.74.16 6.29.48 2.34.48 4.18 1.64 5.53 3.48 1.21 1.62 1.81 3.54 1.81 5.76 0 2.56-.66 4.65-1.97 6.29-.94 1.18-2.33 2.05-4.17 2.61l7.62 16.29h-9.44l-6.6-14.81-.33.1h-1.66l-.2-.1v14.81h-8.67V14.71ZM89.09 50.79h24.24c3.53 0 6.26-5.77 6.26-9.17 0-3.4-2.76-9.03-6.17-9.03H89.08v-6.18h24.43c3 0 5.31-5.43 5.31-8.32 0-2.89-2.34-8.29-5.22-8.29H89.08V.59H0v59.48h89.09v-9.28Zm-2 7.28v-9.28h26.24c2.436 0 4.26-4.885 4.26-7.17 0-2.238-1.806-7.03-4.17-7.03H87.08V24.41h26.429c1.864 0 3.311-4.503 3.311-6.32 0-1.818-1.477-6.29-3.22-6.29H87.08V2.59H2v55.48h85.09Z" clip-rule="evenodd"/><path d="M84.08 47.8h24.24c3.53 0 6.26-2.79 6.26-6.17s-2.76-6.03-6.17-6.03H84.07V23.42h24.43c3 0 5.31-2.47 5.31-5.32s-2.34-5.29-5.22-5.29H84.07V.59h24.52c9.67 0 17.5 7.84 17.5 17.5 0 4.27-1.53 8.18-4.06 11.21 1.86 2 3.27 4.42 4.07 7.11.8-2.69 2.21-5.11 4.07-7.11a17.38 17.38 0 0 1-4.06-11.21c0-9.67 7.84-17.5 17.5-17.5h24.52V12.8h-24.52c-2.88 0-5.22 2.4-5.22 5.29s2.31 5.32 5.31 5.32h24.43v12.18h-24.34c-3.41 0-6.17 2.63-6.17 6.03 0 3.4 2.73 6.17 6.26 6.17h24.24v12.28h-24.24c-8.42 0-15.52-5.55-17.79-13.2-2.27 7.65-9.37 13.2-17.79 13.2H84.06V47.79l.02.01Z"/><path fill-rule="evenodd" d="M325.22 58.23h2.44c.52 0 .93-.05 1.22-.16.29-.11.51-.28.67-.52.15-.24.23-.5.23-.77 0-.41-.15-.74-.44-1-.29-.26-.76-.39-1.4-.39h-2.72v2.84Zm-1.14 4.8v-8.59h3.81c.77 0 1.35.08 1.75.23.4.15.72.42.96.81.24.39.36.82.36 1.29 0 .61-.2 1.13-.59 1.54-.39.42-1.01.69-1.83.8.3.14.53.29.69.43.33.31.65.69.94 1.14l1.49 2.34h-1.43l-1.14-1.79c-.33-.52-.6-.91-.82-1.18-.22-.27-.41-.46-.58-.57-.17-.11-.34-.19-.52-.23-.13-.03-.34-.04-.63-.04h-1.32v3.81h-1.14v.01Z" clip-rule="evenodd"/><path d="M334.07 54.44h-1.14v8.59h1.14v-8.59Z"/><path fill-rule="evenodd" d="M336.12 63.03v-8.59h5.8v1.01h-4.65v2.66h4.03v1.02h-4.03v3.9h-1.15ZM343.56 63.03v-1.2h1.2v1.2h-1.2Zm0-5.02v-1.2h1.2v1.2h-1.2ZM349.49 60.6l1.03-.14c.03.66.15 1.11.37 1.35s.52.36.91.36c.29 0 .53-.06.74-.19.21-.13.35-.31.43-.53.08-.23.12-.59.12-1.08v-5.92h1.14v5.86c0 .72-.09 1.28-.26 1.67-.17.4-.45.7-.83.91-.37.21-.81.31-1.32.31-.76 0-1.34-.22-1.74-.65-.4-.44-.59-1.08-.58-1.93l-.01-.02Z" clip-rule="evenodd"/><path d="M358.77 59.39h-3.24v1.06h3.24v-1.06Z"/><path fill-rule="evenodd" d="M360.73 58.79c0 1.41.16 2.35.49 2.82.33.46.74.7 1.22.7s.89-.23 1.22-.7c.33-.47.5-1.41.5-2.82s-.17-2.36-.5-2.82c-.33-.46-.74-.7-1.23-.7s-.87.21-1.16.62c-.36.52-.54 1.49-.54 2.9Zm-1.08 0c0-1.02.1-1.83.31-2.45.21-.62.52-1.1.93-1.43.41-.34.93-.5 1.56-.5.46 0 .87.1 1.22.28.35.19.64.45.86.81.23.35.41.77.53 1.28.13.5.19 1.18.19 2.03 0 1.01-.1 1.82-.31 2.45-.21.62-.52 1.1-.93 1.43-.41.34-.93.5-1.56.5-.83 0-1.48-.29-1.95-.89-.57-.72-.85-1.88-.85-3.49v-.02ZM367.4 58.79c0 1.41.16 2.35.49 2.82.33.46.74.7 1.22.7s.89-.23 1.22-.7c.33-.47.5-1.41.5-2.82s-.17-2.36-.5-2.82c-.33-.46-.74-.7-1.23-.7s-.87.21-1.16.62c-.36.52-.54 1.49-.54 2.9Zm-1.08 0c0-1.02.1-1.83.31-2.45.21-.62.52-1.1.93-1.43.41-.34.93-.5 1.56-.5.46 0 .87.1 1.22.28.35.19.64.45.86.81.23.35.4.77.53 1.28.13.5.19 1.18.19 2.03 0 1.01-.11 1.82-.31 2.45-.21.62-.52 1.1-.93 1.43-.41.34-.93.5-1.56.5-.83 0-1.48-.29-1.95-.89-.57-.72-.85-1.88-.85-3.49v-.02ZM374.08 58.79c0 1.41.16 2.35.49 2.82.33.46.74.7 1.23.7s.89-.23 1.22-.7c.33-.47.5-1.41.5-2.82 0-1.42-.17-2.36-.5-2.82-.33-.46-.74-.7-1.23-.7s-.87.21-1.16.62c-.36.52-.54 1.49-.54 2.9h-.01Zm-1.08 0c0-1.02.1-1.83.31-2.45.21-.62.52-1.1.93-1.43.41-.34.93-.5 1.56-.5.46 0 .86.1 1.21.28.35.19.64.45.86.81.23.35.4.77.53 1.28.13.5.19 1.18.19 2.03 0 1.01-.1 1.82-.31 2.45-.21.62-.52 1.1-.93 1.43-.41.34-.93.5-1.56.5-.83 0-1.48-.29-1.95-.89-.57-.72-.85-1.88-.85-3.49l.01-.02ZM380.75 58.79c0 1.41.16 2.35.49 2.82.33.46.74.7 1.23.7s.89-.23 1.22-.7c.33-.47.5-1.41.5-2.82s-.17-2.36-.5-2.82c-.33-.46-.74-.7-1.23-.7s-.87.21-1.16.62c-.36.52-.54 1.49-.54 2.9h-.01Zm-1.09 0c0-1.02.11-1.83.31-2.45.21-.62.52-1.1.93-1.43.41-.34.93-.5 1.56-.5.46 0 .86.1 1.21.28.35.19.64.45.86.81.23.35.41.77.53 1.28.13.5.19 1.18.19 2.03 0 1.01-.1 1.82-.31 2.45-.21.62-.52 1.1-.93 1.43-.41.34-.93.5-1.56.5-.83 0-1.48-.29-1.95-.89-.57-.72-.85-1.88-.85-3.49l.01-.02ZM391.89 62.02v1.01h-5.68a2 2 0 0 1 .12-.73c.14-.39.37-.77.69-1.14.32-.37.78-.81 1.38-1.3.93-.77 1.57-1.37 1.89-1.82.33-.45.49-.87.49-1.27 0-.42-.15-.77-.45-1.05-.3-.29-.68-.44-1.16-.44-.51 0-.91.15-1.22.46-.31.3-.46.72-.46 1.26l-1.08-.11c.07-.81.35-1.42.84-1.84.48-.43 1.13-.64 1.95-.64.82 0 1.48.23 1.96.69.48.45.72 1.02.72 1.7 0 .34-.07.68-.21 1.02-.14.33-.38.68-.7 1.05-.32.37-.86.87-1.62 1.51-.64.54-1.04.89-1.22 1.09-.18.19-.33.38-.44.57h4.22l-.02-.02ZM397.5 57.25c0-.6-.16-1.09-.49-1.44-.32-.35-.7-.53-1.16-.53-.46 0-.88.19-1.22.58-.35.38-.52.88-.52 1.49 0 .55.16.99.49 1.34.33.34.74.51 1.22.51s.89-.17 1.2-.51c.32-.34.47-.82.47-1.43l.01-.01Zm-4.32 3.8 1.01-.1c.09.48.25.82.5 1.04.24.21.55.32.93.32.33 0 .61-.08.85-.22.25-.15.45-.35.6-.59.15-.25.29-.59.39-1.01.11-.42.16-.85.16-1.29v-.21c-.21.34-.5.61-.87.82-.37.21-.76.31-1.18.31-.71 0-1.31-.25-1.81-.77-.49-.51-.74-1.2-.74-2.04 0-.84.25-1.57.77-2.11.51-.53 1.16-.8 1.93-.8.56 0 1.07.15 1.53.45.46.3.82.73 1.06 1.29.24.55.36 1.36.36 2.42 0 1.06-.12 1.97-.36 2.63-.24.65-.6 1.14-1.07 1.48-.47.34-1.02.51-1.65.51-.67 0-1.22-.19-1.64-.56-.43-.37-.68-.9-.77-1.57ZM399.7 60.78l1.1-.1c.08.54.27.95.57 1.22.3.27.66.41 1.08.41.51 0 .94-.19 1.29-.57.35-.38.53-.89.53-1.53 0-.6-.17-1.07-.51-1.42-.34-.35-.78-.52-1.32-.52-.34 0-.64.08-.92.23-.28.15-.49.35-.65.6l-.99-.13.83-4.41h4.27v1.01h-3.43l-.46 2.31c.52-.36 1.06-.54 1.63-.54.75 0 1.38.26 1.9.78s.77 1.19.77 2-.23 1.45-.68 2.02c-.55.7-1.3 1.05-2.26 1.05-.78 0-1.42-.22-1.91-.66-.49-.44-.77-1.02-.84-1.74v-.01ZM407.46 58.79c0 1.41.17 2.35.49 2.82.33.46.74.7 1.22.7s.89-.23 1.22-.7c.33-.47.5-1.41.5-2.82s-.17-2.36-.5-2.82c-.33-.46-.74-.7-1.23-.7s-.87.21-1.16.62c-.37.52-.55 1.49-.55 2.9h.01Zm-1.08 0c0-1.02.1-1.83.31-2.45.21-.62.52-1.1.93-1.43.41-.34.93-.5 1.55-.5.46 0 .87.1 1.22.28.35.19.63.45.86.81.23.35.4.77.53 1.28.13.5.19 1.18.19 2.03 0 1.01-.1 1.82-.31 2.45-.21.62-.52 1.1-.93 1.43-.41.34-.93.5-1.56.5-.83 0-1.48-.29-1.95-.89-.57-.72-.85-1.88-.85-3.49l.01-.02Z" clip-rule="evenodd"/><path d="M416.17 59.39h-3.24v1.06h3.24v-1.06Z"/><path fill-rule="evenodd" d="M420.43 60.01v-3.87l-2.69 3.87h2.69Zm0 3.02v-2.06h-3.73V60l3.92-5.57h.86V60h1.16v.97h-1.16v2.06h-1.06.01Z" clip-rule="evenodd"/></g><defs><clipPath id="a"><path fill="#fff" d="M0 .59h422.65v62.59H0z"/></clipPath></defs></svg>