<?xml version="1.0" standalone="no"?>
<!DOCTYPE svg PUBLIC "-//W3C//DTD SVG 20010904//EN"
 "http://www.w3.org/TR/2001/REC-SVG-20010904/DTD/svg10.dtd">
<svg version="1.0" xmlns="http://www.w3.org/2000/svg"
 width="1772.000000pt" height="1772.000000pt" viewBox="0 0 1772.000000 1772.000000"
 preserveAspectRatio="xMidYMid meet">

<g transform="translate(0.000000,1772.000000) scale(0.100000,-0.100000)"
fill="#E16C02" stroke="none">
<path d="M5540 15229 c-197 -23 -354 -70 -545 -165 -387 -191 -651 -497 -752
-874 -20 -76 -26 -126 -30 -255 -8 -249 17 -380 165 -875 128 -428 162 -603
162 -843 0 -427 -74 -739 -330 -1402 -236 -608 -297 -855 -307 -1240 -8 -307
18 -510 94 -728 210 -606 782 -1051 1394 -1086 l106 -6 101 -150 c146 -218
294 -398 477 -581 242 -242 416 -372 676 -504 1074 -545 2408 -552 3859 -20
1375 504 2438 1326 2907 2249 366 722 405 1589 98 2201 -139 278 -390 535
-676 694 l-66 36 -12 78 c-111 712 -562 1290 -1247 1596 -456 204 -904 320
-1914 496 -556 97 -636 112 -820 151 -578 122 -1066 289 -1435 491 -55 30
-217 127 -360 215 -143 88 -302 184 -353 212 -446 252 -830 351 -1192 310z
m3599 -2048 c371 -64 675 -181 976 -379 133 -87 294 -214 368 -289 l47 -49
-142 -140 c-375 -367 -456 -444 -465 -444 -5 0 -38 25 -74 56 -433 377 -1104
494 -1709 299 -384 -125 -698 -401 -877 -774 -58 -120 -135 -357 -159 -486
-25 -137 -26 -485 -1 -630 66 -380 213 -673 457 -909 164 -158 341 -264 560
-335 336 -109 734 -122 1068 -35 258 67 541 215 713 372 l66 61 313 -314 314
-314 -24 -27 c-53 -57 -231 -199 -345 -275 -416 -278 -912 -419 -1480 -419
-501 0 -905 85 -1280 270 -256 126 -416 241 -611 441 -434 446 -674 1083 -674
1794 0 479 85 857 280 1247 230 459 590 816 1045 1038 173 85 297 131 473 176
278 71 481 94 802 89 181 -2 263 -8 359 -24z"/>
<path d="M4131 4735 c-448 -79 -768 -387 -874 -839 -29 -125 -31 -420 -4 -544
39 -177 106 -327 207 -460 173 -230 440 -369 773 -403 335 -34 658 67 900 281
l48 43 -52 53 c-30 30 -58 54 -64 54 -6 0 -24 -14 -41 -31 -41 -43 -150 -114
-240 -155 -336 -156 -766 -109 -1046 114 -287 229 -412 665 -304 1067 93 343
325 570 674 657 129 33 382 32 502 -1 159 -43 303 -118 405 -212 l44 -41 25
20 c14 11 42 34 63 52 l37 33 -45 38 c-134 117 -312 213 -476 256 -83 22 -124
26 -273 29 -122 2 -200 -1 -259 -11z"/>
<path d="M9930 4238 l0 -491 -49 69 c-27 39 -66 85 -87 103 -146 128 -347 191
-568 178 -132 -8 -210 -28 -326 -85 -79 -38 -109 -60 -181 -131 -71 -72 -93
-102 -131 -181 -74 -150 -83 -195 -83 -410 0 -215 9 -261 83 -410 38 -78 61
-110 127 -175 92 -92 161 -136 277 -176 215 -73 457 -58 648 42 90 47 204 146
256 223 l34 51 0 -168 0 -167 75 0 75 0 0 1110 0 1110 -75 0 -75 0 0 -492z
m-434 -322 c201 -64 337 -208 405 -426 30 -96 33 -279 5 -380 -62 -232 -233
-402 -456 -454 -93 -22 -249 -20 -344 4 -215 55 -360 194 -428 410 -20 64 -23
96 -23 220 1 162 14 229 68 340 37 74 126 174 195 219 57 37 165 78 235 91 92
16 252 5 343 -24z"/>
<path d="M10570 4697 c-42 -15 -80 -68 -80 -112 0 -46 38 -98 83 -112 49 -16
92 -7 126 28 93 92 -4 239 -129 196z"/>
<path d="M12424 4699 c-53 -15 -79 -53 -79 -114 0 -43 5 -59 24 -79 36 -39 90
-50 140 -30 50 20 73 54 73 109 0 55 -23 89 -73 109 -44 18 -42 18 -85 5z"/>
<path d="M11440 4543 c-19 -2 -50 -6 -67 -9 l-33 -5 -2 -227 -3 -227 -167 -3
-168 -2 0 -65 0 -65 170 0 170 0 0 -532 c0 -564 4 -610 49 -712 30 -68 101
-139 174 -172 54 -24 78 -28 178 -32 89 -3 129 0 175 13 77 22 154 55 154 66
0 5 -11 34 -25 65 -20 45 -28 55 -42 49 -191 -77 -348 -72 -432 15 -75 78 -75
76 -79 693 l-3 547 266 0 265 0 0 65 0 65 -265 0 -265 0 0 240 c0 132 -3 239
-7 238 -5 0 -24 -3 -43 -5z"/>
<path d="M7268 4090 c-310 -56 -543 -266 -630 -566 -20 -68 -23 -101 -23 -239
1 -187 12 -240 82 -384 38 -80 59 -108 137 -186 100 -101 188 -153 326 -197
67 -21 93 -23 250 -22 161 0 182 2 263 27 155 48 308 140 377 227 l30 38 -51
41 c-28 23 -55 41 -58 41 -4 0 -20 -14 -37 -31 -16 -18 -58 -51 -94 -74 -271
-176 -646 -163 -867 30 -100 88 -181 240 -199 373 l-7 52 707 0 706 0 0 120
c0 156 -20 251 -76 369 -85 179 -248 307 -459 362 -89 23 -298 34 -377 19z
m246 -140 c211 -30 366 -129 449 -289 41 -77 65 -162 69 -246 l3 -60 -632 -3
-633 -2 0 29 c0 37 45 191 69 239 62 121 189 238 311 288 118 48 233 62 364
44z"/>
<path d="M5971 4075 c-131 -29 -257 -108 -321 -203 -19 -28 -38 -52 -42 -52
-5 0 -8 56 -8 125 l0 125 -75 0 -75 0 0 -780 0 -780 80 0 80 0 0 488 c0 529 2
547 57 661 14 29 54 84 89 121 102 108 222 160 368 160 94 -1 151 -12 218 -44
l49 -24 13 22 c41 67 56 99 50 108 -10 16 -110 57 -178 73 -76 18 -220 18
-305 0z"/>
<path d="M13489 4070 c-295 -73 -512 -296 -574 -590 -22 -104 -20 -295 5 -396
69 -291 282 -505 575 -579 106 -27 296 -26 398 3 167 48 296 136 401 275 l36
49 0 -161 0 -161 80 0 80 0 0 780 0 780 -80 0 -80 0 -2 -161 -3 -162 -33 51
c-78 121 -242 231 -406 272 -105 27 -289 26 -397 0z m385 -150 c208 -53 364
-197 431 -399 107 -323 -20 -672 -296 -810 -112 -57 -204 -75 -347 -69 -138 6
-227 34 -333 104 -266 176 -356 555 -203 860 59 119 177 232 292 281 130 56
315 69 456 33z"/>
<path d="M10530 3295 l0 -785 80 0 80 0 0 785 0 785 -80 0 -80 0 0 -785z"/>
<path d="M12380 3295 l0 -785 80 0 80 0 0 785 0 785 -80 0 -80 0 0 -785z"/>
</g>
</svg>
