<?xml version="1.0" standalone="no"?>
<!DOCTYPE svg PUBLIC "-//W3C//DTD SVG 20010904//EN"
 "http://www.w3.org/TR/2001/REC-SVG-20010904/DTD/svg10.dtd">
<svg version="1.0" xmlns="http://www.w3.org/2000/svg"
 width="225.000000pt" height="80.000000pt" viewBox="0 0 325.000000 80.000000"
 preserveAspectRatio="xMidYMid meet">

<g transform="translate(0.000000,80.000000) scale(0.100000,-0.100000)"
fill="#15157c" stroke="none">
<path d="M353 671 c-76 -35 -99 -138 -46 -202 20 -23 24 -34 14 -37 -26 -9
-82 -66 -101 -102 -29 -57 -34 -102 -16 -162 28 -97 113 -160 216 -160 74 0
160 42 160 79 0 18 -17 16 -50 -7 -144 -102 -336 29 -290 199 21 78 66 114
173 136 38 8 30 27 -19 43 -73 24 -99 74 -70 131 32 61 85 77 143 42 32 -20
43 -18 43 5 0 19 -38 41 -80 48 -24 4 -48 0 -77 -13z"/>
<path d="M607 684 c-4 -4 -7 -145 -7 -314 0 -291 1 -309 20 -333 26 -33 64
-42 101 -23 25 13 33 13 59 -1 27 -13 34 -13 67 4 23 11 40 28 44 43 4 14 7
156 8 316 1 233 -2 294 -12 303 -8 6 -17 8 -20 4 -4 -3 -7 -142 -7 -308 0
-289 -1 -303 -20 -320 -17 -15 -24 -16 -45 -7 l-25 12 0 310 c0 303 0 310 -20
310 -20 0 -20 -7 -20 -304 0 -264 -2 -307 -16 -320 -20 -21 -37 -20 -57 2 -15
16 -17 57 -19 322 -3 289 -7 328 -31 304z"/>
<path d="M1087 373 c-4 -3 -7 -42 -7 -85 0 -56 -4 -78 -12 -78 -10 0 -10 -2
-1 -8 6 -4 13 -32 15 -62 l3 -55 38 -3 c21 -2 37 1 37 7 0 6 -13 11 -30 11
-29 0 -30 1 -30 49 0 49 1 50 33 54 l32 4 -32 1 -33 2 0 75 0 75 30 0 c17 0
30 5 30 10 0 11 -63 14 -73 3z"/>
<path d="M1192 368 c-13 -13 -17 -136 -4 -154 4 -7 16 -13 27 -15 17 -4 20
-12 20 -54 0 -38 -4 -50 -15 -50 -9 0 -16 11 -18 27 -2 16 -8 28 -13 28 -17 0
-5 -52 14 -64 25 -16 51 4 55 44 5 50 -5 78 -31 82 -21 3 -22 8 -22 78 0 60 3
75 15 75 9 0 16 -11 18 -27 4 -34 22 -37 22 -5 0 27 -17 47 -40 47 -9 0 -21
-5 -28 -12z"/>
<path d="M1280 370 c0 -5 7 -10 15 -10 12 0 15 -25 18 -142 l3 -143 2 143 c2
119 4 142 17 142 8 0 15 5 15 10 0 6 -16 10 -35 10 -19 0 -35 -4 -35 -10z"/>
<path d="M1438 370 c-4 -8 -9 -73 -10 -145 -3 -108 -6 -130 -18 -130 -12 0
-15 23 -18 138 -3 180 -22 183 -22 4 0 -136 5 -157 41 -157 34 0 40 24 37 166
-2 77 -6 132 -10 124z"/>
<path d="M1474 367 c-2 -7 -3 -74 -2 -148 3 -131 3 -134 26 -137 46 -7 52 11
52 147 0 85 -4 131 -12 139 -16 16 -57 15 -64 -1z m61 -137 c0 -122 -1 -125
-22 -128 -23 -3 -23 -3 -23 128 0 131 0 131 23 128 21 -3 22 -6 22 -128z"/>
<path d="M1584 230 c0 -85 2 -120 3 -78 2 43 2 113 0 156 -1 42 -3 7 -3 -78z"/>
<path d="M1632 368 c-8 -8 -12 -53 -12 -138 0 -130 6 -150 42 -150 29 0 38 34
38 150 0 61 -5 120 -10 131 -12 21 -40 25 -58 7z m46 -142 c-3 -109 -6 -131
-18 -131 -12 0 -15 22 -18 124 -3 137 0 154 23 145 13 -5 15 -26 13 -138z"/>
<path d="M1838 370 c-4 -8 -9 -73 -10 -145 -3 -108 -6 -130 -18 -130 -12 0
-15 23 -18 138 -3 180 -22 183 -22 3 0 -95 4 -136 13 -144 6 -5 32 -10 57 -10
25 0 51 5 58 10 9 8 11 49 10 152 l-2 141 -3 -134 c-4 -133 -11 -165 -38 -154
-11 4 -15 36 -17 146 -2 78 -6 135 -10 127z"/>
<path d="M1947 373 c-4 -3 -7 -42 -7 -85 0 -56 -4 -78 -12 -78 -10 0 -10 -2
-1 -8 6 -4 13 -32 15 -62 l3 -55 38 -3 c21 -2 37 1 37 7 0 6 -13 11 -30 11
-29 0 -30 1 -30 49 0 49 1 50 33 54 l32 4 -32 1 -33 2 0 75 0 75 30 0 c17 0
30 5 30 10 0 11 -63 14 -73 3z"/>
<path d="M2040 230 c0 -98 4 -149 10 -145 6 4 10 63 10 145 0 82 -4 141 -10
145 -6 4 -10 -47 -10 -145z"/>
<path d="M2090 361 c-11 -22 -13 -130 -2 -147 4 -7 16 -13 27 -15 17 -4 20
-12 20 -54 0 -38 -4 -50 -15 -50 -9 0 -16 11 -18 27 -3 29 -22 39 -22 12 0
-26 20 -54 39 -54 30 0 42 25 39 76 -3 42 -6 49 -28 54 -24 6 -25 9 -25 80 0
60 3 75 15 75 8 0 16 -9 18 -20 6 -32 22 -42 22 -14 0 47 -49 68 -70 30z"/>
<path d="M2190 302 c0 -47 -5 -83 -12 -90 -9 -9 -9 -12 0 -12 8 0 12 -20 12
-61 0 -37 4 -58 10 -54 6 3 10 31 10 61 l0 54 40 0 39 0 3 -57 3 -58 38 -3
c21 -2 37 1 37 7 0 6 -13 11 -30 11 -29 0 -30 1 -30 49 0 49 1 50 33 54 l32 4
-32 1 -33 2 0 75 0 75 30 0 c17 0 30 5 30 11 0 6 -16 9 -37 7 l-38 -3 -3 -82
-3 -83 -39 0 -40 0 0 75 0 75 31 0 c17 0 28 4 24 10 -3 6 -22 10 -41 10 l-34
0 0 -78z"/>
<path d="M2397 369 c-4 -8 -6 -76 -5 -150 l3 -134 38 -3 c21 -2 37 1 37 7 0 6
-13 11 -30 11 l-29 0 -3 143 c-2 78 -7 135 -11 126z"/>
<path d="M2480 230 c0 -145 1 -150 21 -150 11 0 29 5 40 10 17 10 19 22 19
140 0 118 -2 130 -19 140 -11 5 -29 10 -40 10 -20 0 -21 -5 -21 -150z m60 0
c0 -123 -1 -130 -20 -130 -19 0 -20 7 -20 130 0 123 1 130 20 130 19 0 20 -7
20 -130z"/>
<path d="M2650 360 c-15 -15 -20 -33 -20 -72 0 -29 4 -59 9 -67 5 -7 4 -25 -2
-41 -14 -36 2 -94 26 -98 31 -6 47 17 47 69 0 31 4 49 12 49 9 0 9 3 0 12 -7
7 -12 21 -13 32 -1 18 -2 17 -8 -4 -4 -16 -14 -25 -26 -25 -18 0 -20 7 -20 70
0 65 2 70 23 73 12 2 22 8 22 13 0 16 -29 10 -50 -11z m48 -197 c4 -40 -13
-74 -33 -67 -16 6 -22 84 -8 98 16 16 38 -1 41 -31z"/>
<path d="M2812 368 c-7 -7 -12 -39 -12 -78 0 -38 -5 -71 -12 -78 -9 -9 -9 -12
0 -12 7 0 12 -24 15 -62 l3 -63 2 63 c2 59 3 62 27 62 23 0 24 -4 28 -63 2
-34 3 6 3 88 -1 142 -2 150 -21 153 -11 1 -26 -3 -33 -10z m46 -87 c-3 -58 -5
-66 -23 -66 -18 0 -20 8 -23 63 -3 70 10 101 35 81 10 -9 13 -31 11 -78z"/>
<path d="M2911 366 c-7 -9 -11 -42 -9 -87 3 -69 5 -74 28 -79 23 -5 25 -11 25
-55 0 -38 -4 -50 -15 -50 -9 0 -16 11 -18 27 -2 16 -8 28 -13 28 -17 0 -5 -52
14 -64 31 -20 52 4 52 60 0 43 -3 50 -28 62 -27 13 -28 15 -25 85 2 56 6 72
18 72 9 0 16 -11 18 -27 4 -34 22 -37 22 -5 0 42 -44 63 -69 33z"/>
<path d="M3010 361 c-5 -11 -10 -70 -10 -131 0 -116 9 -150 38 -150 36 0 42
20 42 150 0 130 -6 150 -42 150 -9 0 -22 -9 -28 -19z m45 -132 c0 -112 -2
-134 -15 -134 -12 0 -15 22 -18 124 -3 132 0 155 21 148 9 -3 12 -39 12 -138z"/>
<path d="M3117 373 c-12 -11 -8 -281 4 -288 5 -4 21 -4 35 -1 20 5 24 12 23
39 -1 21 -3 25 -6 12 -7 -30 -23 -45 -39 -38 -20 7 -21 245 0 262 15 13 30 0
39 -34 4 -16 5 -15 6 6 2 38 -39 66 -62 42z"/>
<path d="M3210 90 c0 -5 5 -10 10 -10 6 0 10 5 10 10 0 6 -4 10 -10 10 -5 0
-10 -4 -10 -10z"/>
<path d="M935 30 c-3 -6 0 -12 7 -15 26 -10 2303 0 2301 10 -4 14 -2299 19
-2308 5z"/>
</g>
</svg>
