<?xml version="1.0" standalone="no"?>
<!DOCTYPE svg PUBLIC "-//W3C//DTD SVG 20010904//EN"
 "http://www.w3.org/TR/2001/REC-SVG-20010904/DTD/svg10.dtd">
<svg version="1.0" xmlns="http://www.w3.org/2000/svg"
 width="1175.000000pt" height="406.000000pt" viewBox="0 0 1175.000000 406.000000"
 preserveAspectRatio="xMidYMid meet">

<g transform="translate(0.000000,406.000000) scale(0.100000,-0.100000)"
fill="#000000" stroke="none">
<path d="M1085 2774 c-196 -30 -370 -156 -455 -326 -68 -139 -70 -156 -70
-750 l0 -528 120 0 120 0 0 194 0 194 238 5 c186 3 249 8 292 22 210 65 372
232 425 435 22 82 22 225 0 305 -53 196 -207 360 -398 420 -76 24 -209 38
-272 29z m166 -248 c115 -27 219 -117 259 -224 33 -86 26 -215 -15 -295 -37
-75 -117 -149 -193 -178 -52 -21 -78 -23 -280 -27 l-224 -4 4 229 3 228 32 67
c37 78 93 137 163 173 89 45 157 54 251 31z"/>
<path d="M2496 2764 c-189 -41 -349 -167 -431 -340 -49 -103 -55 -160 -55
-526 l0 -338 119 0 120 0 3 348 3 347 28 60 c37 79 114 156 190 190 48 22 80
28 163 33 l104 5 0 118 0 119 -87 -1 c-49 0 -119 -7 -157 -15z"/>
<path d="M3431 2770 c-148 -31 -252 -89 -347 -193 -105 -114 -154 -243 -155
-402 -1 -110 12 -167 61 -270 70 -148 190 -253 350 -308 166 -58 369 -34 516
61 84 55 176 157 218 244 87 177 86 363 -4 545 -69 140 -207 256 -359 304 -75
23 -216 32 -280 19z m246 -265 c74 -33 116 -68 157 -128 74 -110 84 -241 27
-363 -110 -234 -419 -282 -597 -92 -70 75 -98 145 -98 248 0 74 4 93 30 150
50 107 149 187 258 210 63 14 164 2 223 -25z"/>
<path d="M7144 2765 c-3 -8 -4 -171 -2 -362 4 -297 7 -356 22 -403 55 -169
171 -308 317 -378 104 -50 162 -62 290 -62 l100 0 -3 118 -3 117 -110 5 c-137
7 -198 33 -274 115 -58 64 -88 136 -97 234 l-7 68 244 90 244 91 3 116 c2 93
0 116 -11 116 -8 0 -116 -38 -241 -85 -124 -47 -228 -85 -231 -85 -3 0 -5 72
-5 160 l0 160 -115 0 c-92 0 -117 -3 -121 -15z"/>
<path d="M4815 2751 c-216 -63 -367 -211 -431 -427 -24 -80 -24 -238 0 -319
48 -163 165 -307 306 -377 129 -65 153 -68 542 -68 l348 0 0 333 c0 374 -6
419 -66 545 -71 147 -235 279 -395 317 -86 20 -228 18 -304 -4z m305 -253 c69
-31 119 -74 159 -136 50 -79 61 -142 61 -365 l0 -198 -233 3 -233 3 -66 33
c-79 39 -130 92 -171 179 -25 56 -30 78 -30 147 -1 68 4 91 26 141 37 78 68
118 125 157 75 52 135 69 227 65 59 -2 94 -10 135 -29z"/>
<path d="M6265 2754 c-210 -51 -385 -224 -440 -434 -10 -38 -17 -102 -17 -155
0 -171 57 -310 177 -431 114 -114 259 -174 422 -174 175 0 306 54 435 178 l83
81 -84 85 -85 85 -71 -67 c-102 -98 -146 -117 -270 -117 -88 0 -107 3 -157 27
-76 35 -142 104 -181 186 -27 58 -31 77 -30 147 1 133 53 230 163 303 72 48
140 66 230 60 92 -7 162 -41 247 -121 l69 -66 85 85 84 85 -81 78 c-87 85
-181 138 -289 166 -73 19 -210 18 -290 -1z"/>
<path d="M9000 2754 c-224 -59 -398 -241 -446 -466 -29 -135 -1 -300 72 -433
15 -27 60 -82 98 -120 118 -118 255 -175 419 -175 114 0 175 14 276 62 148 71
266 213 317 383 29 96 24 249 -10 349 -37 108 -69 159 -151 241 -77 77 -176
134 -280 160 -74 19 -222 18 -295 -1z m302 -256 c279 -128 285 -525 10 -660
-62 -31 -74 -33 -167 -33 -91 0 -105 3 -158 29 -71 36 -140 108 -175 184 -23
49 -27 70 -27 147 0 76 4 99 26 146 47 99 128 171 232 205 67 22 190 13 259
-18z"/>
<path d="M10430 2754 c-205 -53 -377 -223 -436 -430 -14 -49 -18 -119 -22
-411 l-4 -353 126 0 125 0 3 358 3 357 28 53 c38 72 100 132 173 168 53 26 69
29 154 29 82 0 103 -4 152 -27 79 -37 142 -98 181 -177 l32 -66 3 -347 3 -348
120 0 120 0 -3 368 -3 367 -26 67 c-40 102 -87 173 -161 244 -75 70 -195 134
-286 153 -73 15 -216 13 -282 -5z"/>
<path d="M8166 2688 c-3 -13 -6 -35 -6 -50 0 -22 -7 -29 -45 -44 -25 -9 -45
-19 -45 -23 0 -3 17 -15 38 -26 35 -19 37 -23 40 -74 l3 -54 39 38 c39 38 39
38 89 28 28 -6 51 -8 51 -6 0 2 -12 21 -26 43 l-26 39 30 43 30 44 -53 -6
c-53 -6 -54 -5 -83 32 -28 37 -30 37 -36 16z"/>
<path d="M8240 2314 c-36 -13 -84 -31 -107 -40 l-43 -16 0 -349 0 -349 115 0
115 0 0 390 c0 215 -3 389 -7 389 -5 -1 -37 -12 -73 -25z"/>
<path d="M4345 1118 c-84 -30 -135 -105 -135 -202 0 -130 94 -215 226 -204
103 9 174 86 182 197 3 47 -1 65 -25 111 -23 44 -39 59 -82 82 -57 30 -112 35
-166 16z m135 -50 c62 -32 90 -77 90 -146 0 -97 -67 -172 -155 -172 -143 0
-216 183 -114 288 53 54 112 63 179 30z"/>
<path d="M4961 1117 c-67 -23 -96 -103 -58 -160 16 -24 55 -42 145 -67 79 -21
103 -69 57 -115 -33 -34 -95 -34 -160 0 -37 18 -52 21 -62 13 -31 -26 68 -78
149 -78 85 0 138 44 138 116 0 58 -31 85 -127 113 -89 26 -113 43 -113 81 0
62 84 87 161 48 44 -23 47 -23 58 -6 9 14 7 20 -13 33 -52 34 -117 42 -175 22z"/>
<path d="M5386 1115 c-202 -72 -166 -385 48 -403 131 -11 229 78 229 208 0
149 -136 245 -277 195z m116 -35 c87 -25 138 -134 104 -224 -50 -130 -204
-144 -283 -27 -17 25 -23 48 -23 88 0 64 18 103 62 136 48 37 82 43 140 27z"/>
<path d="M7225 1118 c-84 -30 -135 -105 -135 -202 0 -130 94 -215 226 -204
103 9 174 86 182 197 3 47 -1 65 -25 111 -23 44 -39 59 -82 82 -57 30 -112 35
-166 16z m135 -50 c62 -32 90 -77 90 -146 0 -97 -67 -172 -155 -172 -143 0
-216 183 -114 288 53 54 112 63 179 30z"/>
<path d="M8124 1116 c-72 -32 -95 -109 -49 -164 19 -22 44 -35 101 -50 42 -12
85 -29 95 -38 28 -25 24 -68 -8 -94 -37 -29 -119 -24 -164 9 -17 13 -37 20
-45 17 -28 -11 -13 -35 38 -60 61 -31 133 -34 185 -9 66 31 81 129 27 172 -24
19 -41 25 -131 50 -23 6 -49 18 -58 27 -22 22 -19 68 6 90 27 25 106 25 144 0
29 -19 55 -15 55 8 0 37 -141 67 -196 42z"/>
<path d="M3410 916 l0 -206 90 0 c124 0 183 14 215 52 42 50 31 112 -28 148
-26 16 -28 20 -14 26 22 8 47 55 47 88 0 14 -13 40 -29 58 l-29 33 -126 3
-126 4 0 -206z m238 148 c32 -22 30 -76 -4 -103 -22 -17 -41 -21 -105 -21
l-79 0 0 70 0 70 83 0 c59 0 89 -5 105 -16z m5 -175 c50 -23 55 -93 8 -118
-11 -6 -60 -11 -110 -11 l-91 0 0 70 0 70 85 0 c46 0 95 -5 108 -11z"/>
<path d="M3832 918 c3 -202 3 -203 26 -206 21 -3 22 0 22 72 l0 76 73 0 c93 1
147 24 170 73 22 46 21 85 -3 125 -30 48 -72 62 -190 62 l-100 0 2 -202z m217
147 c50 -25 58 -96 15 -136 -22 -20 -38 -24 -105 -28 l-79 -3 0 91 0 91 70 0
c43 0 82 -6 99 -15z"/>
<path d="M5762 918 l3 -203 138 -3 137 -3 0 26 0 25 -115 0 -115 0 0 180 0
180 -25 0 -25 0 2 -202z"/>
<path d="M6110 974 c0 -163 9 -198 64 -237 43 -31 161 -32 203 -1 55 40 68 84
71 242 l4 142 -26 0 -26 0 0 -135 c0 -156 -11 -194 -61 -220 -40 -21 -111 -15
-141 11 -39 35 -48 76 -48 214 0 123 -1 130 -20 130 -19 0 -20 -7 -20 -146z"/>
<path d="M6530 1100 c0 -18 7 -20 65 -20 l65 0 2 -182 c3 -181 3 -183 26 -186
l22 -3 0 185 0 186 70 0 c63 0 70 2 70 20 0 19 -7 20 -160 20 -153 0 -160 -1
-160 -20z"/>
<path d="M6940 915 c0 -198 1 -205 20 -205 19 0 20 7 20 205 0 198 -1 205 -20
205 -19 0 -20 -7 -20 -205z"/>
<path d="M7600 915 c0 -197 1 -205 20 -205 19 0 20 8 22 168 l3 167 133 -167
c74 -93 140 -168 148 -168 12 0 14 35 14 205 0 197 -1 205 -20 205 -18 0 -20
-8 -22 -160 l-3 -160 -125 160 c-96 122 -130 160 -147 160 l-23 0 0 -205z"/>
</g>
</svg>
